M48
; DRILL file {KiCad (5.1.12)-1} date 12/13/21 00:14:45
; FORMAT={3:3/ absolute / metric / keep zeros}
; #@! TF.CreationDate,2021-12-13T00:14:45+03:00
; #@! TF.GenerationSoftware,Kicad,Pcbnew,(5.1.12)-1
; #@! TF.FileFunction,Plated,1,2,PTH
FMAT,2
METRIC
T1C0.400
T2C0.900
T3C1.000
T4C1.100
T5C1.600
T6C1.700
T7C3.200
T8C3.400
%
G90
G05
T1
X051250Y-079000
X052750Y-103000
X053500Y-098250
X054750Y-097000
X056500Y-080500
X056500Y-084250
X056500Y-093250
X056513Y-086237
X057500Y-125250
X057500Y-131000
X057500Y-136750
X057500Y-142500
X058250Y-099750
X058250Y-103500
X058500Y-088500
X059000Y-094250
X059250Y-099750
X059250Y-103500
X060000Y-078000
X060250Y-099750
X060250Y-103500
X061250Y-099750
X061250Y-103500
X062000Y-082500
X062000Y-084000
X062250Y-099750
X062250Y-103500
X062750Y-056500
X062750Y-075000
X063250Y-099750
X063250Y-103500
X063500Y-075750
X064250Y-073500
X064250Y-102750
X064250Y-099750
X064750Y-079500
X065000Y-074250
X065250Y-102500
X065250Y-099750
X066750Y-079500
X067000Y-057000
X067250Y-053000
X067250Y-055000
X069000Y-106250
X069000Y-108750
X069250Y-125250
X069500Y-075000
X069750Y-097750
X069750Y-131000
X069750Y-136750
X069750Y-142500
X070000Y-106250
X070000Y-108750
X070500Y-068250
X070500Y-083500
X071000Y-106250
X071000Y-108750
X071250Y-093000
X071250Y-094750
X071500Y-064000
X071500Y-083500
X071750Y-076000
X072000Y-080000
X072000Y-106250
X072000Y-108750
X072482Y-092982
X072500Y-068250
X073000Y-054000
X073000Y-080000
X073500Y-058750
X073500Y-083500
X074000Y-080000
X074250Y-099250
X074250Y-100250
X074500Y-083500
X075000Y-080000
X075250Y-068250
X075500Y-083500
X076250Y-064000
X076500Y-079500
X077000Y-093000
X077250Y-068250
X077500Y-076000
X077500Y-080000
X078000Y-052750
X079000Y-052750
X079487Y-068237
X080000Y-052750
X080750Y-064000
X081000Y-076750
X081500Y-106500
X082750Y-094500
X083250Y-106500
X083250Y-107500
X083250Y-113000
X083750Y-125250
X083750Y-131000
X083750Y-136750
X083750Y-142500
X084750Y-094500
X087000Y-067250
X087000Y-077250
X087000Y-082750
X087500Y-051750
X088000Y-090000
X088080Y-095080
X088500Y-051750
X089250Y-067500
X089250Y-087000
X089500Y-051750
X096250Y-110000
X096250Y-114500
X096250Y-119000
X096250Y-123500
X096250Y-128000
X096250Y-132500
X096250Y-137000
X096250Y-141500
X098500Y-056000
X098500Y-060500
X098500Y-065000
X098500Y-069500
X098500Y-074000
X098500Y-078500
X098500Y-083000
X098500Y-087500
X098500Y-092000
X098500Y-096500
X098500Y-101000
X098500Y-105500
X104750Y-110500
X104750Y-119500
X104750Y-128500
X104750Y-137500
X107000Y-056500
X107000Y-065500
X107000Y-074500
X107000Y-083500
X107000Y-092500
X107000Y-101500
T2
X062914Y-062750
X062914Y-065290
X062914Y-067830
X062914Y-070370
X065454Y-064020
X065454Y-066560
X065454Y-069100
X065454Y-071640
T3
X052500Y-083000
X052500Y-085540
X052500Y-088080
X052500Y-090620
X055040Y-083000
X055040Y-085540
X055040Y-088080
X055040Y-090620
X071500Y-061000
X076400Y-061000
X090000Y-090000
X090000Y-092540
X090000Y-095080
X092540Y-090000
X092540Y-092540
X092540Y-095080
X111750Y-108420
X111750Y-110960
X111750Y-113500
X111750Y-117420
X111750Y-119960
X111750Y-122500
X111750Y-126420
X111750Y-128960
X111750Y-131500
X111750Y-135420
X111750Y-137960
X111750Y-140500
X114000Y-054420
X114000Y-056960
X114000Y-059500
X114000Y-063420
X114000Y-065960
X114000Y-068500
X114000Y-072420
X114000Y-074960
X114000Y-077500
X114000Y-081420
X114000Y-083960
X114000Y-086500
X114000Y-090420
X114000Y-092960
X114000Y-095500
X114000Y-099420
X114000Y-101960
X114000Y-104500
T4
X052500Y-060566
X052500Y-063106
X052500Y-071284
X052500Y-073824
T5
X085000Y-054750
X088500Y-054750
X092000Y-054750
X120750Y-062500
X120750Y-137500
X124250Y-062500
X124250Y-137500
X127750Y-062500
X127750Y-137500
X131250Y-062500
X131250Y-137500
X134750Y-062500
X134750Y-137500
X135750Y-072500
X135750Y-076000
X135750Y-079500
X135750Y-083000
X135750Y-086500
X135750Y-093000
X135750Y-096500
X135750Y-100000
X135750Y-103500
X135750Y-107000
X135750Y-113500
X135750Y-117000
X135750Y-120500
X135750Y-124000
X135750Y-127500
T6
X059612Y-059321
X059612Y-075069
T7
X056564Y-061480
X056564Y-072910
T8
X054000Y-054000
X054000Y-146000
X136000Y-054000
X136000Y-146000
T0
M30
