G04 #@! TF.GenerationSoftware,KiCad,Pcbnew,(5.1.12)-1*
G04 #@! TF.CreationDate,2021-12-13T00:14:42+03:00*
G04 #@! TF.ProjectId,OCP-2,4f43502d-322e-46b6-9963-61645f706362,rev?*
G04 #@! TF.SameCoordinates,Original*
G04 #@! TF.FileFunction,Copper,L1,Top*
G04 #@! TF.FilePolarity,Positive*
%FSLAX46Y46*%
G04 Gerber Fmt 4.6, Leading zero omitted, Abs format (unit mm)*
G04 Created by KiCad (PCBNEW (5.1.12)-1) date 2021-12-13 00:14:42*
%MOMM*%
%LPD*%
G01*
G04 APERTURE LIST*
G04 #@! TA.AperFunction,SMDPad,CuDef*
%ADD10R,0.800000X1.500000*%
G04 #@! TD*
G04 #@! TA.AperFunction,SMDPad,CuDef*
%ADD11R,1.000000X1.000000*%
G04 #@! TD*
G04 #@! TA.AperFunction,SMDPad,CuDef*
%ADD12R,1.500000X1.200000*%
G04 #@! TD*
G04 #@! TA.AperFunction,SMDPad,CuDef*
%ADD13R,1.250000X0.500000*%
G04 #@! TD*
G04 #@! TA.AperFunction,SMDPad,CuDef*
%ADD14R,1.050000X1.100000*%
G04 #@! TD*
G04 #@! TA.AperFunction,SMDPad,CuDef*
%ADD15R,1.500000X0.550000*%
G04 #@! TD*
G04 #@! TA.AperFunction,SMDPad,CuDef*
%ADD16R,0.550000X1.500000*%
G04 #@! TD*
G04 #@! TA.AperFunction,SMDPad,CuDef*
%ADD17R,0.500000X1.250000*%
G04 #@! TD*
G04 #@! TA.AperFunction,ComponentPad*
%ADD18R,1.700000X1.700000*%
G04 #@! TD*
G04 #@! TA.AperFunction,ComponentPad*
%ADD19C,1.700000*%
G04 #@! TD*
G04 #@! TA.AperFunction,SMDPad,CuDef*
%ADD20R,1.200000X1.500000*%
G04 #@! TD*
G04 #@! TA.AperFunction,SMDPad,CuDef*
%ADD21R,1.500000X2.000000*%
G04 #@! TD*
G04 #@! TA.AperFunction,SMDPad,CuDef*
%ADD22R,4.000000X2.000000*%
G04 #@! TD*
G04 #@! TA.AperFunction,ComponentPad*
%ADD23R,2.800000X2.800000*%
G04 #@! TD*
G04 #@! TA.AperFunction,ComponentPad*
%ADD24C,2.800000*%
G04 #@! TD*
G04 #@! TA.AperFunction,SMDPad,CuDef*
%ADD25R,0.450000X1.750000*%
G04 #@! TD*
G04 #@! TA.AperFunction,ComponentPad*
%ADD26C,7.000000*%
G04 #@! TD*
G04 #@! TA.AperFunction,SMDPad,CuDef*
%ADD27R,1.100000X1.050000*%
G04 #@! TD*
G04 #@! TA.AperFunction,ComponentPad*
%ADD28C,2.200000*%
G04 #@! TD*
G04 #@! TA.AperFunction,ComponentPad*
%ADD29C,4.000000*%
G04 #@! TD*
G04 #@! TA.AperFunction,ComponentPad*
%ADD30R,1.500000X1.500000*%
G04 #@! TD*
G04 #@! TA.AperFunction,ComponentPad*
%ADD31C,1.500000*%
G04 #@! TD*
G04 #@! TA.AperFunction,SMDPad,CuDef*
%ADD32R,1.000000X0.800000*%
G04 #@! TD*
G04 #@! TA.AperFunction,ViaPad*
%ADD33C,0.800000*%
G04 #@! TD*
G04 #@! TA.AperFunction,Conductor*
%ADD34C,0.250000*%
G04 #@! TD*
G04 #@! TA.AperFunction,Conductor*
%ADD35C,0.200000*%
G04 #@! TD*
G04 #@! TA.AperFunction,Conductor*
%ADD36C,0.100000*%
G04 #@! TD*
G04 APERTURE END LIST*
D10*
X85250000Y-63250000D03*
X88950000Y-63250000D03*
D11*
X93000001Y-87000000D03*
X90500001Y-87000000D03*
X55000000Y-80250000D03*
X52500000Y-80250000D03*
X106000000Y-133000000D03*
X108500000Y-133000000D03*
X106000000Y-124000000D03*
X108500000Y-124000000D03*
X106000000Y-115000000D03*
X108500000Y-115000000D03*
X106000000Y-106000000D03*
X108500000Y-106000000D03*
X108250000Y-97000000D03*
X110750000Y-97000000D03*
X108250000Y-88000000D03*
X110750000Y-88000000D03*
X108500000Y-79000000D03*
X111000000Y-79000000D03*
X108500000Y-70000000D03*
X111000000Y-70000000D03*
X108249999Y-61000000D03*
X110749999Y-61000000D03*
X108250000Y-52000000D03*
X110750000Y-52000000D03*
D12*
X85500000Y-79250000D03*
X85500000Y-81100000D03*
D13*
X56750000Y-96000000D03*
X56750000Y-94250000D03*
D14*
X84750000Y-93000000D03*
X84750000Y-91400000D03*
D15*
X78250000Y-103300000D03*
X78250000Y-102500000D03*
X78250000Y-101700000D03*
X78250000Y-100900000D03*
X78250000Y-100100000D03*
X78250000Y-99300000D03*
X78250000Y-98500000D03*
X78250000Y-97700000D03*
D16*
X80000000Y-96000000D03*
X80800000Y-96000000D03*
X81600000Y-96000000D03*
X82400000Y-96000000D03*
X83200000Y-96000000D03*
X84000000Y-96000000D03*
X84800000Y-96000000D03*
X85600000Y-96000000D03*
D15*
X87300000Y-97700000D03*
X87300000Y-98500000D03*
X87300000Y-99300000D03*
X87300000Y-100100000D03*
X87300000Y-100900000D03*
X87300000Y-101700000D03*
X87300000Y-102500000D03*
X87300000Y-103300000D03*
D16*
X85600000Y-105000000D03*
X84800000Y-105000000D03*
X84000000Y-105000000D03*
X83200000Y-105000000D03*
X82400000Y-105000000D03*
X81600000Y-105000000D03*
X80800000Y-105000000D03*
X80000000Y-105000000D03*
D17*
X55625000Y-104000000D03*
X53875000Y-104000000D03*
D14*
X58500000Y-91250000D03*
X58500000Y-89650000D03*
D17*
X55625000Y-102000000D03*
X53875000Y-102000000D03*
D18*
X92540000Y-95080000D03*
X92540000Y-92540000D03*
X92540000Y-90000000D03*
X90000000Y-95080000D03*
X90000000Y-92540000D03*
D19*
X90000000Y-90000000D03*
D20*
X73750000Y-93000000D03*
X75600000Y-93000000D03*
D13*
X86750000Y-91375000D03*
X86750000Y-93125000D03*
D12*
X83250000Y-109750000D03*
X83250000Y-111600000D03*
D18*
X52500000Y-90620000D03*
X55040000Y-90620000D03*
X55040000Y-88080000D03*
X55040000Y-85540000D03*
X55040000Y-83000000D03*
X52500000Y-88080000D03*
X52500000Y-85540000D03*
D19*
X52500000Y-83000000D03*
D12*
X88500000Y-79250000D03*
X88500000Y-81100000D03*
D21*
X84750000Y-69250000D03*
X89250000Y-69250000D03*
X87000000Y-69250000D03*
D22*
X87000000Y-75500000D03*
D20*
X86000000Y-65750000D03*
X87850000Y-65750000D03*
D16*
X68050000Y-98000000D03*
X67250000Y-98000000D03*
X66450000Y-98000000D03*
X65650000Y-98000000D03*
X64850000Y-98000000D03*
X64050000Y-98000000D03*
X63250000Y-98000000D03*
X62450000Y-98000000D03*
D15*
X60750000Y-96250000D03*
X60750000Y-95450000D03*
X60750000Y-94650000D03*
X60750000Y-93850000D03*
X60750000Y-93050000D03*
X60750000Y-92250000D03*
X60750000Y-91450000D03*
X60750000Y-90650000D03*
D16*
X62450000Y-88950000D03*
X63250000Y-88950000D03*
X64050000Y-88950000D03*
X64850000Y-88950000D03*
X65650000Y-88950000D03*
X66450000Y-88950000D03*
X67250000Y-88950000D03*
X68050000Y-88950000D03*
D15*
X69750000Y-90650000D03*
X69750000Y-91450000D03*
X69750000Y-92250000D03*
X69750000Y-93050000D03*
X69750000Y-93850000D03*
X69750000Y-94650000D03*
X69750000Y-95450000D03*
X69750000Y-96250000D03*
D17*
X59125000Y-85000000D03*
X60875000Y-85000000D03*
X54125000Y-78000000D03*
X52375000Y-78000000D03*
X60625000Y-56500000D03*
X58875000Y-56500000D03*
X59125000Y-83000000D03*
X60875000Y-83000000D03*
D23*
X92000000Y-54750000D03*
X88500000Y-54750000D03*
D24*
X85000000Y-54750000D03*
D23*
X135750000Y-127500000D03*
X135750000Y-124000000D03*
X135750000Y-120500000D03*
X135750000Y-117000000D03*
D24*
X135750000Y-113500000D03*
D23*
X135750000Y-107000000D03*
X135750000Y-103500000D03*
X135750000Y-100000000D03*
X135750000Y-96500000D03*
D24*
X135750000Y-93000000D03*
D23*
X120750000Y-137500000D03*
X124250000Y-137500000D03*
X127750000Y-137500000D03*
X131250000Y-137500000D03*
D24*
X134750000Y-137500000D03*
D23*
X135750000Y-86500000D03*
X135750000Y-83000000D03*
X135750000Y-79500000D03*
X135750000Y-76000000D03*
D24*
X135750000Y-72500000D03*
D23*
X134750000Y-62500000D03*
X131250000Y-62500000D03*
X127750000Y-62500000D03*
X124250000Y-62500000D03*
D24*
X120750000Y-62500000D03*
D18*
X111750000Y-135420000D03*
X111750000Y-137960000D03*
D19*
X111750000Y-140500000D03*
D18*
X111750000Y-126420000D03*
X111750000Y-128960000D03*
D19*
X111750000Y-131500000D03*
D18*
X111750000Y-117420000D03*
X111750000Y-119960000D03*
D19*
X111750000Y-122500000D03*
D18*
X111750000Y-108420000D03*
X111750000Y-110960000D03*
D19*
X111750000Y-113500000D03*
D18*
X114000000Y-99420000D03*
X114000000Y-101960000D03*
D19*
X114000000Y-104500000D03*
D18*
X114000000Y-90420000D03*
X114000000Y-92960000D03*
D19*
X114000000Y-95500000D03*
D18*
X114000000Y-81420000D03*
X114000000Y-83960000D03*
D19*
X114000000Y-86500000D03*
D18*
X114000000Y-72420000D03*
X114000000Y-74960000D03*
D19*
X114000000Y-77500000D03*
D18*
X114000000Y-63420000D03*
X114000000Y-65960000D03*
D19*
X114000000Y-68500000D03*
D18*
X114000000Y-54420000D03*
X114000000Y-56960000D03*
D19*
X114000000Y-59500000D03*
D25*
X79450000Y-70550000D03*
X79450000Y-77750000D03*
X78800000Y-70550000D03*
X78800000Y-77750000D03*
X78150000Y-70550000D03*
X78150000Y-77750000D03*
X77500000Y-70550000D03*
X77500000Y-77750000D03*
X76850000Y-70550000D03*
X76850000Y-77750000D03*
X76200000Y-70550000D03*
X76200000Y-77750000D03*
X75550000Y-70550000D03*
X75550000Y-77750000D03*
X74900000Y-70550000D03*
X74900000Y-77750000D03*
X74250000Y-70550000D03*
X74250000Y-77750000D03*
X73600000Y-70550000D03*
X73600000Y-77750000D03*
X72950000Y-70550000D03*
X72950000Y-77750000D03*
X72300000Y-70550000D03*
X72300000Y-77750000D03*
X71650000Y-70550000D03*
X71650000Y-77750000D03*
X71000000Y-70550000D03*
X71000000Y-77750000D03*
D26*
X136000000Y-146000000D03*
X136000000Y-54000000D03*
D13*
X81000000Y-78875000D03*
X81000000Y-80625000D03*
D17*
X62125000Y-79500001D03*
X63875000Y-79500001D03*
X63875000Y-77500000D03*
X62125000Y-77500000D03*
X74125000Y-53000000D03*
X75875000Y-53000000D03*
X75875000Y-55000000D03*
X74125000Y-55000000D03*
D20*
X69500000Y-53000000D03*
X71350000Y-53000000D03*
D27*
X59250001Y-79500000D03*
X57650001Y-79500000D03*
X71250000Y-55000000D03*
X69650000Y-55000000D03*
D19*
X71500000Y-61000000D03*
X76400000Y-61000000D03*
D27*
X76500000Y-57500000D03*
X74900000Y-57500000D03*
X70250000Y-57500000D03*
X71850000Y-57500000D03*
D19*
X52500000Y-60565600D03*
D18*
X52500000Y-73824400D03*
D19*
X52500000Y-71284400D03*
D18*
X52500000Y-63105600D03*
D28*
X59612000Y-75069000D03*
X59612000Y-59321000D03*
D29*
X56564000Y-72910000D03*
X56564000Y-61480000D03*
D30*
X65454000Y-71640000D03*
X62914000Y-70370000D03*
X65454000Y-69100000D03*
X62914000Y-67830000D03*
X65454000Y-66560000D03*
X62914000Y-65290000D03*
X65454000Y-64020000D03*
D31*
X62914000Y-62750000D03*
D26*
X54000000Y-146000000D03*
X54000000Y-54000000D03*
D10*
X73950000Y-122500000D03*
X70250000Y-122500000D03*
X88450000Y-139750000D03*
X84750000Y-139750000D03*
X88450000Y-134000000D03*
X84750000Y-134000000D03*
X88450000Y-128250000D03*
X84750000Y-128250000D03*
X88450000Y-122500000D03*
X84750000Y-122500000D03*
X62200000Y-139750000D03*
X58500000Y-139750000D03*
X62200000Y-134000000D03*
X58500000Y-134000000D03*
X62200000Y-128250000D03*
X58500000Y-128250000D03*
X62200000Y-122500000D03*
X58500000Y-122500000D03*
X74450000Y-139750000D03*
X70750000Y-139750000D03*
X74450000Y-134000000D03*
X70750000Y-134000000D03*
X74450000Y-128250000D03*
X70750000Y-128250000D03*
D13*
X76000000Y-124999999D03*
X76000000Y-123249999D03*
X90500000Y-142249999D03*
X90500000Y-140499999D03*
X90500000Y-136499999D03*
X90500000Y-134749999D03*
X90500000Y-130749999D03*
X90500000Y-128999999D03*
X90500000Y-124999999D03*
X90500000Y-123249999D03*
X64250000Y-142249999D03*
X64250000Y-140499999D03*
X64250000Y-136499999D03*
X64250000Y-134749999D03*
X64250000Y-130749999D03*
X64250000Y-128999999D03*
X64250000Y-124999999D03*
X64250000Y-123249999D03*
X76500000Y-142249999D03*
X76500000Y-140499999D03*
X76500000Y-136499999D03*
X76500000Y-134749999D03*
X76500000Y-130749999D03*
X76500000Y-128999999D03*
D27*
X71200000Y-125250000D03*
X72800000Y-125250000D03*
X85700000Y-142500000D03*
X87300000Y-142500000D03*
X85700000Y-136750000D03*
X87300000Y-136750000D03*
X85700000Y-131000000D03*
X87300000Y-131000000D03*
X85700000Y-125250000D03*
X87300000Y-125250000D03*
X59450000Y-142500000D03*
X61050000Y-142500000D03*
X59450000Y-136750000D03*
X61050000Y-136750000D03*
X59450000Y-131000000D03*
X61050000Y-131000000D03*
X59450000Y-125250000D03*
X61050000Y-125250000D03*
X71700000Y-142500000D03*
X73300000Y-142500000D03*
X71700000Y-136750000D03*
X73300000Y-136750000D03*
X71750000Y-131000000D03*
X73350000Y-131000000D03*
D32*
X101000000Y-135250000D03*
X98500000Y-136250000D03*
X98500000Y-134250000D03*
X101000000Y-126250000D03*
X98500000Y-127250000D03*
X98500000Y-125250000D03*
X101000000Y-117250000D03*
X98500000Y-118250000D03*
X98500000Y-116250000D03*
X101000000Y-108250000D03*
X98500000Y-109250000D03*
X98500000Y-107250000D03*
X103250000Y-99250000D03*
X100750000Y-100250000D03*
X100750000Y-98250000D03*
X101000000Y-139750000D03*
X98500000Y-140750000D03*
X98500000Y-138750000D03*
X101000000Y-130750000D03*
X98500000Y-131750000D03*
X98500000Y-129750000D03*
X101000000Y-121750000D03*
X98500000Y-122750000D03*
X98500000Y-120750000D03*
X101000000Y-112750000D03*
X98500000Y-113750000D03*
X98500000Y-111750000D03*
X103250000Y-103750000D03*
X100750000Y-104750000D03*
X100750000Y-102750000D03*
X103250000Y-90250000D03*
X100750000Y-91250000D03*
X100750000Y-89250000D03*
X103250000Y-81250000D03*
X100750000Y-82250000D03*
X100750000Y-80250000D03*
X103250000Y-72250000D03*
X100750000Y-73250000D03*
X100750000Y-71250000D03*
X103250000Y-63250000D03*
X100750000Y-64250000D03*
X100750000Y-62250000D03*
X103250000Y-54250000D03*
X100750000Y-55250000D03*
X100750000Y-53250000D03*
X103250000Y-94750000D03*
X100750000Y-95750000D03*
X100750000Y-93750000D03*
X103250000Y-85750000D03*
X100750000Y-86750000D03*
X100750000Y-84750000D03*
X103250000Y-76750000D03*
X100750000Y-77750000D03*
X100750000Y-75750000D03*
X103250000Y-67750000D03*
X100750000Y-68750000D03*
X100750000Y-66750000D03*
X103250000Y-58750000D03*
X100750000Y-59750000D03*
X100750000Y-57750000D03*
D10*
X109250000Y-139250000D03*
X105550000Y-139250000D03*
X109250000Y-130250000D03*
X105550000Y-130250000D03*
X109250000Y-121250000D03*
X105550000Y-121250000D03*
X109250000Y-112250000D03*
X105550000Y-112250000D03*
X111500000Y-103250000D03*
X107800000Y-103250000D03*
X109250000Y-135750000D03*
X105550000Y-135750000D03*
X109250000Y-126750000D03*
X105550000Y-126750000D03*
X109250000Y-117750000D03*
X105550000Y-117750000D03*
X109250000Y-108750000D03*
X105550000Y-108750000D03*
X111500000Y-99750000D03*
X107800000Y-99750000D03*
X111500000Y-94250000D03*
X107800000Y-94250000D03*
X111500000Y-85250000D03*
X107800000Y-85250000D03*
X111500000Y-76250000D03*
X107800000Y-76250000D03*
X111500000Y-67250000D03*
X107800000Y-67250000D03*
X111500000Y-58250000D03*
X107800000Y-58250000D03*
X111500000Y-90750000D03*
X107800000Y-90750000D03*
X111500000Y-81750000D03*
X107800000Y-81750000D03*
X111500000Y-72750000D03*
X107800000Y-72750000D03*
X111500000Y-63750000D03*
X107800000Y-63750000D03*
X111500000Y-54750000D03*
X107800000Y-54750000D03*
D13*
X103500000Y-138375000D03*
X103500000Y-136625000D03*
X103500000Y-129375000D03*
X103500000Y-127625000D03*
X103500000Y-120375000D03*
X103500000Y-118625000D03*
X103500000Y-111375000D03*
X103500000Y-109625000D03*
X105750000Y-102375000D03*
X105750000Y-100625000D03*
X96250000Y-136125000D03*
X96250000Y-134375000D03*
X96250000Y-127125000D03*
X96250000Y-125375000D03*
X96250000Y-118125000D03*
X96250000Y-116375000D03*
X96250000Y-109125000D03*
X96250000Y-107375000D03*
X98500000Y-100125000D03*
X98500000Y-98375000D03*
X94000000Y-132625000D03*
X94000000Y-130875000D03*
X96250000Y-138875000D03*
X96250000Y-140625000D03*
X94000000Y-123625000D03*
X94000000Y-121875000D03*
X96250000Y-129875000D03*
X96250000Y-131625000D03*
X94000000Y-114625000D03*
X94000000Y-112875000D03*
X96250000Y-120875000D03*
X96250000Y-122625000D03*
X96250000Y-104625000D03*
X96250000Y-102875000D03*
X96250000Y-111875000D03*
X96250000Y-113625000D03*
X96250000Y-96625000D03*
X96250000Y-94875000D03*
X98500000Y-102875000D03*
X98500000Y-104625000D03*
X105750000Y-93375000D03*
X105750000Y-91625000D03*
X105750000Y-84375000D03*
X105750000Y-82625000D03*
X105750000Y-75375000D03*
X105750000Y-73625000D03*
X105750000Y-66375000D03*
X105750000Y-64625000D03*
X105750000Y-57375000D03*
X105750000Y-55625000D03*
X98500000Y-91125000D03*
X98500000Y-89375000D03*
X98500000Y-82125000D03*
X98500000Y-80375000D03*
X98500000Y-73125000D03*
X98500000Y-71375000D03*
X98500000Y-64000000D03*
X98500000Y-62250000D03*
X98500000Y-55125000D03*
X98500000Y-53375000D03*
X96250000Y-89375000D03*
X96250000Y-91125000D03*
X98500000Y-93875000D03*
X98500000Y-95625000D03*
X96250000Y-80375000D03*
X96250000Y-82125000D03*
X98500000Y-84875000D03*
X98500000Y-86625000D03*
X96250000Y-71375000D03*
X96250000Y-73125000D03*
X98500000Y-75875000D03*
X98500000Y-77625000D03*
X96250000Y-62250000D03*
X96250000Y-64000000D03*
X98500000Y-66750000D03*
X98500000Y-68500000D03*
X96250000Y-53375000D03*
X96250000Y-55125000D03*
X98500000Y-57875000D03*
X98500000Y-59625000D03*
D14*
X72500000Y-65200000D03*
X72500000Y-66800000D03*
X75250000Y-65250000D03*
X75250000Y-66850000D03*
X79750000Y-65250000D03*
X79750000Y-66850000D03*
X77250000Y-65250000D03*
X77250000Y-66850000D03*
X70500000Y-65250000D03*
X70500000Y-66850000D03*
D12*
X68500000Y-76650000D03*
X68500000Y-78500000D03*
D33*
X74500000Y-83500000D03*
X62000000Y-84000000D03*
X62000000Y-82500000D03*
X74000000Y-80000000D03*
X73500000Y-83500000D03*
X73000000Y-80000000D03*
X83750000Y-142500000D03*
X69750000Y-142500000D03*
X57500000Y-125250000D03*
X57500000Y-131000000D03*
X57500000Y-136750000D03*
X57500000Y-142500000D03*
X83750000Y-125250000D03*
X83750000Y-131000000D03*
X83750000Y-136750000D03*
X69750000Y-136750000D03*
X107000000Y-74500000D03*
X98500000Y-74000000D03*
X98500000Y-83000000D03*
X107000000Y-83500000D03*
X98500000Y-92000000D03*
X107000000Y-92500000D03*
X98500000Y-101000000D03*
X107000000Y-101500000D03*
X96250000Y-110000000D03*
X104750000Y-110500000D03*
X96250000Y-119000000D03*
X104750000Y-119500000D03*
X96250000Y-128000000D03*
X104750000Y-128500000D03*
X96250000Y-137000000D03*
X104750000Y-137500000D03*
X107000000Y-65500000D03*
X98500000Y-65000000D03*
X98500000Y-56000000D03*
X107000000Y-56500000D03*
X69750000Y-131000000D03*
X67250000Y-55000000D03*
X77250000Y-68250000D03*
X75250000Y-68250000D03*
X70500000Y-68250000D03*
X72500000Y-68250000D03*
X73500000Y-58750000D03*
X81000000Y-76750000D03*
X69500000Y-75000000D03*
X79487347Y-68237347D03*
X77500000Y-76000000D03*
X71750000Y-76000000D03*
X69250000Y-125250000D03*
X89250000Y-67500000D03*
X60000000Y-78000000D03*
X62750000Y-56500000D03*
X87000000Y-82750000D03*
X71250000Y-93000000D03*
X71250000Y-94750000D03*
X77000000Y-93000000D03*
X58500000Y-88500000D03*
X59000000Y-94250000D03*
X87500000Y-51750000D03*
X88500000Y-51750000D03*
X80000000Y-52750000D03*
X79000000Y-52750000D03*
X89500000Y-51750000D03*
X78000000Y-52750000D03*
X83250000Y-106500000D03*
X81500000Y-106500000D03*
X83250000Y-113000000D03*
X82750000Y-94500000D03*
X72000000Y-106250000D03*
X71000000Y-106250000D03*
X70000000Y-106250000D03*
X69000000Y-106250000D03*
X69000000Y-108750000D03*
X70000000Y-108750000D03*
X71000000Y-108750000D03*
X72000000Y-108750000D03*
X67250000Y-53000000D03*
X71500000Y-64000000D03*
X76250000Y-64000000D03*
X80750000Y-64000000D03*
X72481750Y-92981750D03*
X52750000Y-103000000D03*
X87000000Y-67250000D03*
X56500000Y-93250000D03*
X84750000Y-94500000D03*
X87000000Y-77250000D03*
X83250000Y-107500000D03*
X88080000Y-95080000D03*
X88000000Y-90000000D03*
X61250000Y-99750000D03*
X61250000Y-103500000D03*
X60250000Y-99750000D03*
X60250000Y-103500000D03*
X59249997Y-99750000D03*
X59249997Y-103499997D03*
X58249994Y-99750000D03*
X58249994Y-103499994D03*
X62250000Y-99750000D03*
X62250000Y-103500000D03*
X63250000Y-99750000D03*
X63250000Y-103500000D03*
X54750000Y-97000000D03*
X53500000Y-98250000D03*
X67000000Y-57000000D03*
X73000000Y-54000000D03*
X66750000Y-79500000D03*
X64750000Y-79500000D03*
X72000000Y-80000000D03*
X69750000Y-97750000D03*
X65250000Y-102500000D03*
X65250006Y-99750000D03*
X74250000Y-100250000D03*
X64250000Y-102750000D03*
X64250003Y-99750000D03*
X74250000Y-99250000D03*
X75500000Y-83500000D03*
X75000000Y-80000000D03*
X56512653Y-86237347D03*
X56500000Y-84250000D03*
X70500000Y-83500000D03*
X76500000Y-79500000D03*
X64250000Y-73500000D03*
X62750000Y-75000000D03*
X65000000Y-74250000D03*
X63500000Y-75750000D03*
X71500000Y-83500000D03*
X77500000Y-80000000D03*
X98500000Y-78500000D03*
X98500000Y-87500000D03*
X98500000Y-96500000D03*
X98500000Y-105500000D03*
X96250000Y-114500000D03*
X96250000Y-123500000D03*
X96250000Y-132500000D03*
X96250000Y-141500000D03*
X98500000Y-60500000D03*
X98500000Y-69500000D03*
X89250000Y-87000000D03*
X51250000Y-79000000D03*
X56500000Y-80500000D03*
D34*
X61750000Y-85000000D02*
X60875000Y-85000000D01*
X62000000Y-84750000D02*
X61750000Y-85000000D01*
X62000000Y-84000000D02*
X62000000Y-84750000D01*
X74000000Y-79926998D02*
X74000000Y-80000000D01*
X74900000Y-79026998D02*
X74000000Y-79926998D01*
X74900000Y-77750000D02*
X74900000Y-79026998D01*
X62250000Y-82250000D02*
X62000000Y-82500000D01*
X73815685Y-82250000D02*
X62250000Y-82250000D01*
X74500000Y-82934315D02*
X73815685Y-82250000D01*
X74500000Y-83500000D02*
X74500000Y-82934315D01*
X61250000Y-83000000D02*
X60875000Y-83000000D01*
X61500000Y-83250000D02*
X61250000Y-83000000D01*
X62500000Y-83250000D02*
X61500000Y-83250000D01*
X63000000Y-82750000D02*
X62500000Y-83250000D01*
X73500000Y-82934315D02*
X73315685Y-82750000D01*
X73500000Y-83500000D02*
X73500000Y-82934315D01*
X73000000Y-79926998D02*
X73000000Y-80000000D01*
X74250000Y-78676998D02*
X73000000Y-79926998D01*
X74250000Y-77750000D02*
X74250000Y-78676998D01*
X73315685Y-82750000D02*
X63000000Y-82750000D01*
X83750000Y-140000000D02*
X83750000Y-142500000D01*
X84000000Y-139750000D02*
X83750000Y-140000000D01*
X83750000Y-142500000D02*
X85750000Y-142500000D01*
X84750000Y-139750000D02*
X84000000Y-139750000D01*
X83750000Y-142500000D02*
X83750000Y-142500000D01*
X69250000Y-122750000D02*
X69250000Y-125250000D01*
X69500000Y-122500000D02*
X69250000Y-122750000D01*
X69250000Y-125250000D02*
X71250000Y-125250000D01*
X70250000Y-122500000D02*
X69500000Y-122500000D01*
X69250000Y-125250000D02*
X69250000Y-125250000D01*
X69750000Y-140000000D02*
X69750000Y-142500000D01*
X69750000Y-142500000D02*
X69750000Y-142500000D01*
X70000000Y-139750000D02*
X69750000Y-140000000D01*
X69750000Y-142500000D02*
X71750001Y-142500000D01*
X70750000Y-139750000D02*
X70000000Y-139750000D01*
X58500000Y-122500000D02*
X57750000Y-122500000D01*
X57500000Y-125250000D02*
X57500000Y-125250000D01*
X57500000Y-125250000D02*
X59500001Y-125250000D01*
X57500000Y-122750000D02*
X57500000Y-125250000D01*
X57750000Y-122500000D02*
X57500000Y-122750000D01*
X58500000Y-128250000D02*
X57750000Y-128250000D01*
X57500000Y-131000000D02*
X57500000Y-131000000D01*
X57500000Y-131000000D02*
X59500001Y-131000000D01*
X57500000Y-128500000D02*
X57500000Y-131000000D01*
X57750000Y-128250000D02*
X57500000Y-128500000D01*
X58500000Y-134000000D02*
X57750000Y-134000000D01*
X57500000Y-136750000D02*
X57500000Y-136750000D01*
X57500000Y-136750000D02*
X59500001Y-136750000D01*
X57500000Y-134250000D02*
X57500000Y-136750000D01*
X57750000Y-134000000D02*
X57500000Y-134250000D01*
X58500000Y-139750000D02*
X57750000Y-139750000D01*
X57500000Y-142500000D02*
X57500000Y-142500000D01*
X57500000Y-142500000D02*
X59500000Y-142500000D01*
X57500000Y-140000000D02*
X57500000Y-142500000D01*
X57750000Y-139750000D02*
X57500000Y-140000000D01*
X84750000Y-122500000D02*
X84000000Y-122500000D01*
X83750000Y-125250000D02*
X83750000Y-125250000D01*
X83750000Y-125250000D02*
X85750000Y-125250000D01*
X83750000Y-122750000D02*
X83750000Y-125250000D01*
X84000000Y-122500000D02*
X83750000Y-122750000D01*
X84750000Y-128250000D02*
X84000000Y-128250000D01*
X83750000Y-131000000D02*
X83750000Y-131000000D01*
X83750000Y-131000000D02*
X85750000Y-131000000D01*
X83750000Y-128500000D02*
X83750000Y-131000000D01*
X84000000Y-128250000D02*
X83750000Y-128500000D01*
X84750000Y-134000000D02*
X84000000Y-134000000D01*
X83750000Y-136750000D02*
X83750000Y-136750000D01*
X83750000Y-136750000D02*
X85750000Y-136750000D01*
X83750000Y-134250000D02*
X83750000Y-136750000D01*
X84000000Y-134000000D02*
X83750000Y-134250000D01*
X69750000Y-136750000D02*
X71750001Y-136750000D01*
X69750000Y-136750000D02*
X69750000Y-136750000D01*
X70000000Y-134000000D02*
X69750000Y-134250000D01*
X69750000Y-134250000D02*
X69750000Y-136750000D01*
X70750000Y-134000000D02*
X70000000Y-134000000D01*
X107000000Y-73000000D02*
X107000000Y-74500000D01*
X107000000Y-76000000D02*
X107250000Y-76250000D01*
X107250000Y-76250000D02*
X107780330Y-76250000D01*
X98500000Y-74000000D02*
X98500000Y-74000000D01*
X98500000Y-73125000D02*
X98500000Y-74000000D01*
X100750000Y-73250000D02*
X100000000Y-73250000D01*
X98500000Y-74000000D02*
X99250000Y-74000000D01*
X107780330Y-72750000D02*
X107250000Y-72750000D01*
X107250000Y-72750000D02*
X107000000Y-73000000D01*
X107000000Y-74500000D02*
X107000000Y-76000000D01*
X99250000Y-74000000D02*
X100000000Y-73250000D01*
X107780330Y-81750000D02*
X107250000Y-81750000D01*
X98500000Y-82125000D02*
X98500000Y-83000000D01*
X107250000Y-81750000D02*
X107000000Y-82000000D01*
X107000000Y-82000000D02*
X107000000Y-83500000D01*
X107250000Y-85250000D02*
X107780330Y-85250000D01*
X100750000Y-82250000D02*
X100000000Y-82250000D01*
X107000000Y-83500000D02*
X107000000Y-85000000D01*
X107000000Y-85000000D02*
X107250000Y-85250000D01*
X98500000Y-83000000D02*
X98500000Y-83000000D01*
X98500000Y-83000000D02*
X99250000Y-83000000D01*
X99250000Y-83000000D02*
X100000000Y-82250000D01*
X107780330Y-90750000D02*
X107250000Y-90750000D01*
X98500000Y-91125000D02*
X98500000Y-92000000D01*
X107250000Y-90750000D02*
X107000000Y-91000000D01*
X107000000Y-91000000D02*
X107000000Y-92500000D01*
X107250000Y-94250000D02*
X107780330Y-94250000D01*
X100750000Y-91250000D02*
X100000000Y-91250000D01*
X107000000Y-92500000D02*
X107000000Y-94000000D01*
X107000000Y-94000000D02*
X107250000Y-94250000D01*
X98500000Y-92000000D02*
X98500000Y-92000000D01*
X98500000Y-92000000D02*
X99250000Y-92000000D01*
X99250000Y-92000000D02*
X100000000Y-91250000D01*
X107780330Y-99750000D02*
X107250000Y-99750000D01*
X98500000Y-100125000D02*
X98500000Y-101000000D01*
X107250000Y-99750000D02*
X107000000Y-100000000D01*
X107000000Y-100000000D02*
X107000000Y-101500000D01*
X107250000Y-103250000D02*
X107780330Y-103250000D01*
X100750000Y-100250000D02*
X100000000Y-100250000D01*
X107000000Y-101500000D02*
X107000000Y-103000000D01*
X107000000Y-103000000D02*
X107250000Y-103250000D01*
X98500000Y-101000000D02*
X98500000Y-101000000D01*
X98500000Y-101000000D02*
X99250000Y-101000000D01*
X99250000Y-101000000D02*
X100000000Y-100250000D01*
X105530330Y-108750000D02*
X105000000Y-108750000D01*
X96250000Y-109125000D02*
X96250000Y-110000000D01*
X105000000Y-108750000D02*
X104750000Y-109000000D01*
X104750000Y-109000000D02*
X104750000Y-110500000D01*
X105000000Y-112250000D02*
X105530330Y-112250000D01*
X98500000Y-109250000D02*
X97750000Y-109250000D01*
X104750000Y-110500000D02*
X104750000Y-112000000D01*
X104750000Y-112000000D02*
X105000000Y-112250000D01*
X96250000Y-110000000D02*
X96250000Y-110000000D01*
X96250000Y-110000000D02*
X97000000Y-110000000D01*
X97000000Y-110000000D02*
X97750000Y-109250000D01*
X105530330Y-117750000D02*
X105000000Y-117750000D01*
X96250000Y-118125000D02*
X96250000Y-119000000D01*
X105000000Y-117750000D02*
X104750000Y-118000000D01*
X104750000Y-118000000D02*
X104750000Y-119500000D01*
X105000000Y-121250000D02*
X105530330Y-121250000D01*
X98500000Y-118250000D02*
X97750000Y-118250000D01*
X104750000Y-119500000D02*
X104750000Y-121000000D01*
X104750000Y-121000000D02*
X105000000Y-121250000D01*
X96250000Y-119000000D02*
X96250000Y-119000000D01*
X96250000Y-119000000D02*
X97000000Y-119000000D01*
X97000000Y-119000000D02*
X97750000Y-118250000D01*
X105530330Y-126750000D02*
X105000000Y-126750000D01*
X96250000Y-127125000D02*
X96250000Y-128000000D01*
X105000000Y-126750000D02*
X104750000Y-127000000D01*
X104750000Y-127000000D02*
X104750000Y-128500000D01*
X105000000Y-130250000D02*
X105530330Y-130250000D01*
X98500000Y-127250000D02*
X97750000Y-127250000D01*
X104750000Y-128500000D02*
X104750000Y-130000000D01*
X104750000Y-130000000D02*
X105000000Y-130250000D01*
X96250000Y-128000000D02*
X96250000Y-128000000D01*
X96250000Y-128000000D02*
X97000000Y-128000000D01*
X97000000Y-128000000D02*
X97750000Y-127250000D01*
X105530330Y-135750000D02*
X105000000Y-135750000D01*
X96250000Y-136125000D02*
X96250000Y-137000000D01*
X105000000Y-135750000D02*
X104750000Y-136000000D01*
X104750000Y-136000000D02*
X104750000Y-137500000D01*
X105000000Y-139250000D02*
X105530330Y-139250000D01*
X98500000Y-136250000D02*
X97750000Y-136250000D01*
X104750000Y-137500000D02*
X104750000Y-139000000D01*
X104750000Y-139000000D02*
X105000000Y-139250000D01*
X96250000Y-137000000D02*
X96250000Y-137000000D01*
X96250000Y-137000000D02*
X97000000Y-137000000D01*
X97000000Y-137000000D02*
X97750000Y-136250000D01*
X107250000Y-67250000D02*
X107780330Y-67250000D01*
X107000000Y-67000000D02*
X107250000Y-67250000D01*
X107000000Y-65500000D02*
X107000000Y-67000000D01*
X107000000Y-64000000D02*
X107000000Y-65500000D01*
X98500000Y-65000000D02*
X98500000Y-65000000D01*
X99250000Y-65000000D02*
X100000000Y-64250000D01*
X98500000Y-65000000D02*
X99250000Y-65000000D01*
X98500000Y-64125000D02*
X98500000Y-65000000D01*
X100750000Y-64250000D02*
X100000000Y-64250000D01*
X107780330Y-63750000D02*
X107250000Y-63750000D01*
X107250000Y-63750000D02*
X107000000Y-64000000D01*
X98500000Y-55125000D02*
X98500000Y-56000000D01*
X100750000Y-55250000D02*
X100000000Y-55250000D01*
X99250000Y-56000000D02*
X100000000Y-55250000D01*
X98500000Y-56000000D02*
X99250000Y-56000000D01*
X98500000Y-56000000D02*
X98500000Y-56000000D01*
X107780330Y-54750000D02*
X107250000Y-54750000D01*
X107250000Y-54750000D02*
X107000000Y-55000000D01*
X107250000Y-58250000D02*
X107780330Y-58250000D01*
X107000000Y-58000000D02*
X107250000Y-58250000D01*
X107000000Y-55000000D02*
X107000000Y-56500000D01*
X107000000Y-56500000D02*
X107000000Y-58000000D01*
X69750000Y-128500000D02*
X69750000Y-131000000D01*
X70000000Y-128250000D02*
X69750000Y-128500000D01*
X70750000Y-128250000D02*
X70000000Y-128250000D01*
X69750000Y-131000000D02*
X71750001Y-131000000D01*
X69750000Y-131000000D02*
X69750000Y-131000000D01*
X69650000Y-55000000D02*
X67250000Y-55000000D01*
X71850000Y-57500000D02*
X73250000Y-57500000D01*
X74900000Y-57500000D02*
X73750000Y-57500000D01*
X73250000Y-57500000D02*
X73750000Y-57500000D01*
X77500000Y-68500000D02*
X77250000Y-68250000D01*
X77500000Y-70550000D02*
X77500000Y-68500000D01*
X77250000Y-66850000D02*
X77250000Y-68250000D01*
X75550000Y-70550000D02*
X75550000Y-68550000D01*
X75550000Y-68550000D02*
X75250000Y-68250000D01*
X74900000Y-68600000D02*
X75250000Y-68250000D01*
X74900000Y-70550000D02*
X74900000Y-68600000D01*
X75250000Y-66850000D02*
X75250000Y-68250000D01*
X70500000Y-66850000D02*
X70500000Y-68250000D01*
X72500000Y-66800000D02*
X72500000Y-68250000D01*
X73250000Y-57500000D02*
X73500000Y-57750000D01*
X73500000Y-57750000D02*
X73500000Y-58750000D01*
X73500000Y-57750000D02*
X73750000Y-57500000D01*
X81000000Y-78875000D02*
X81000000Y-76750000D01*
X68500000Y-76650000D02*
X68500000Y-75250000D01*
X79750000Y-66850000D02*
X79750000Y-68000000D01*
X79512653Y-68237347D02*
X79487347Y-68237347D01*
X79750000Y-68000000D02*
X79512653Y-68237347D01*
X77500000Y-77750000D02*
X77500000Y-76000000D01*
X71650000Y-77750000D02*
X71650000Y-76150000D01*
X71750000Y-76050000D02*
X71750000Y-76000000D01*
X71650000Y-76150000D02*
X71750000Y-76050000D01*
X68750000Y-75000000D02*
X68500000Y-75250000D01*
X69500000Y-75000000D02*
X68750000Y-75000000D01*
X89250000Y-69250000D02*
X89250000Y-67500000D01*
X57650001Y-79500000D02*
X56750000Y-79500000D01*
X56750000Y-79500000D02*
X56500000Y-79250000D01*
X56500000Y-78250000D02*
X56750000Y-78000000D01*
X56500000Y-79250000D02*
X56500000Y-79000000D01*
X56500000Y-79000000D02*
X56500000Y-78750000D01*
X56500000Y-78750000D02*
X56500000Y-78500000D01*
X56500000Y-78500000D02*
X56500000Y-78250000D01*
X60625000Y-56500000D02*
X62750000Y-56500000D01*
X85500000Y-81100000D02*
X85500000Y-82500000D01*
X85500000Y-82500000D02*
X85750000Y-82750000D01*
X85750000Y-82750000D02*
X87000000Y-82750000D01*
X88500000Y-81100000D02*
X88500000Y-82500000D01*
X88250000Y-82750000D02*
X87000000Y-82750000D01*
X88500000Y-82500000D02*
X88250000Y-82750000D01*
X71200000Y-93050000D02*
X71250000Y-93000000D01*
X69750000Y-93050000D02*
X71200000Y-93050000D01*
X71100000Y-94650000D02*
X69750000Y-94650000D01*
X71250000Y-94750000D02*
X71100000Y-94650000D01*
X75600000Y-93000000D02*
X77000000Y-93000000D01*
X58500000Y-89650000D02*
X58500000Y-88500000D01*
X59400000Y-93850000D02*
X59000000Y-94250000D01*
X60750000Y-93850000D02*
X59400000Y-93850000D01*
X87500000Y-51750000D02*
X82000000Y-51750000D01*
X80250000Y-52750000D02*
X80000000Y-52750000D01*
X82000000Y-51750000D02*
X81000000Y-52750000D01*
X87500000Y-51750000D02*
X88500000Y-51750000D01*
X79000000Y-52750000D02*
X80000000Y-52750000D01*
X88500000Y-51750000D02*
X89500000Y-51750000D01*
X79000000Y-52750000D02*
X78000000Y-52750000D01*
X80000000Y-52750000D02*
X81000000Y-52750000D01*
X84750000Y-90250000D02*
X84750000Y-91400000D01*
X84500000Y-90000000D02*
X84750000Y-90250000D01*
X83200000Y-106450000D02*
X83250000Y-106500000D01*
X83200000Y-105000000D02*
X83200000Y-106450000D01*
X81600000Y-106400000D02*
X81500000Y-106500000D01*
X81600000Y-105000000D02*
X81600000Y-106400000D01*
X83250000Y-111600000D02*
X83250000Y-113000000D01*
X82400000Y-94850000D02*
X82750000Y-94500000D01*
X82400000Y-96000000D02*
X82400000Y-94850000D01*
X82750000Y-90250000D02*
X83000000Y-90000000D01*
X83000000Y-90000000D02*
X84500000Y-90000000D01*
X82750000Y-94500000D02*
X82750000Y-94500000D01*
X82750000Y-94500000D02*
X82750000Y-90250000D01*
X69000000Y-106250000D02*
X69000000Y-108750000D01*
X70000000Y-106250000D02*
X70000000Y-108750000D01*
X71000000Y-108750000D02*
X71000000Y-106250000D01*
X72000000Y-106250000D02*
X72000000Y-108750000D01*
X88750000Y-65750000D02*
X87850000Y-65750000D01*
X56250000Y-78000000D02*
X56500000Y-78250000D01*
X54125000Y-78000000D02*
X55750000Y-78000000D01*
X56250000Y-78000000D02*
X57000000Y-78000000D01*
X57000000Y-78000000D02*
X60000000Y-78000000D01*
X56750000Y-78000000D02*
X57000000Y-78000000D01*
X55750000Y-78000000D02*
X56250000Y-78000000D01*
X88950000Y-63250000D02*
X89750000Y-63250000D01*
X89750000Y-63250000D02*
X90000000Y-63500000D01*
X88750000Y-65750000D02*
X89000000Y-65750000D01*
X89250000Y-66000000D02*
X89250000Y-66500000D01*
X89000000Y-65750000D02*
X89250000Y-66000000D01*
X89250000Y-66500000D02*
X89250000Y-66250000D01*
X89250000Y-67500000D02*
X89250000Y-66500000D01*
X90000000Y-63500000D02*
X90000000Y-64750000D01*
X90000000Y-64750000D02*
X90000000Y-65250000D01*
X89000000Y-65750000D02*
X89500000Y-65750000D01*
X89500000Y-65750000D02*
X89250000Y-66000000D01*
X90000000Y-65250000D02*
X89500000Y-65750000D01*
X71000000Y-78750000D02*
X71000000Y-77750000D01*
X71000000Y-79250000D02*
X71000000Y-78750000D01*
X70750000Y-79500000D02*
X71000000Y-79250000D01*
X68750000Y-79500000D02*
X70750000Y-79500000D01*
X68500000Y-79250000D02*
X68750000Y-79500000D01*
X68500000Y-78500000D02*
X68500000Y-79250000D01*
X69500000Y-53000000D02*
X67250000Y-53000000D01*
X77250000Y-64250000D02*
X77250000Y-65250000D01*
X77000000Y-64000000D02*
X77250000Y-64250000D01*
X76200000Y-64300000D02*
X76200000Y-64200000D01*
X76200000Y-64200000D02*
X76000000Y-64000000D01*
X76000000Y-64000000D02*
X75500000Y-64000000D01*
X75250000Y-64250000D02*
X75250000Y-65250000D01*
X75500000Y-64000000D02*
X75250000Y-64250000D01*
X76400000Y-64000000D02*
X76200000Y-64200000D01*
X76750000Y-64000000D02*
X76400000Y-64000000D01*
X76500000Y-64000000D02*
X76750000Y-64000000D01*
X76750000Y-64000000D02*
X77000000Y-64000000D01*
X76850000Y-70550000D02*
X76850000Y-69100000D01*
X76700000Y-68950000D02*
X76750000Y-69000000D01*
X76850000Y-69100000D02*
X76750000Y-69000000D01*
X76450000Y-68950000D02*
X76700000Y-68950000D01*
X76200000Y-69200000D02*
X76450000Y-68950000D01*
X76200000Y-70550000D02*
X76200000Y-69200000D01*
X72950000Y-70550000D02*
X72950000Y-69425000D01*
X72250000Y-64000000D02*
X72500000Y-64250000D01*
X72500000Y-64250000D02*
X72500000Y-65200000D01*
X71750000Y-64000000D02*
X72250000Y-64000000D01*
X71500000Y-64250000D02*
X71750000Y-64000000D01*
X71500000Y-64500000D02*
X71500000Y-64250000D01*
X71500000Y-67750000D02*
X71500000Y-68500000D01*
X71500000Y-67750000D02*
X71500000Y-64500000D01*
X71000000Y-69000000D02*
X71000000Y-70550000D01*
X71500000Y-68500000D02*
X71000000Y-69000000D01*
X71987500Y-68987500D02*
X72512500Y-68987500D01*
X71500000Y-68500000D02*
X71987500Y-68987500D01*
X72950000Y-69425000D02*
X72512500Y-68987500D01*
X70500000Y-65250000D02*
X70500000Y-64250000D01*
X70500000Y-64250000D02*
X70750000Y-64000000D01*
X71250000Y-64000000D02*
X71500000Y-64250000D01*
X70750000Y-64000000D02*
X71250000Y-64000000D01*
X71500000Y-64250000D02*
X71500000Y-64000000D01*
X76200000Y-64050000D02*
X76250000Y-64000000D01*
X76200000Y-64300000D02*
X76200000Y-64050000D01*
X76250000Y-64000000D02*
X76400000Y-64000000D01*
X76000000Y-64000000D02*
X76250000Y-64000000D01*
X76250000Y-68750000D02*
X76450000Y-68950000D01*
X76250000Y-64000000D02*
X76250000Y-68750000D01*
X76250000Y-69150000D02*
X76200000Y-69200000D01*
X76250000Y-68750000D02*
X76250000Y-69150000D01*
X79750000Y-65250000D02*
X79750000Y-64250000D01*
X79750000Y-64250000D02*
X80000000Y-64000000D01*
X79450000Y-69300000D02*
X79450000Y-70550000D01*
X80750000Y-68000000D02*
X79450000Y-69300000D01*
X87000000Y-69250000D02*
X87000000Y-75500000D01*
X85500000Y-79250000D02*
X85500000Y-78750000D01*
X87000000Y-77250000D02*
X87000000Y-75500000D01*
X85500000Y-78750000D02*
X87000000Y-77250000D01*
X88500000Y-78750000D02*
X87000000Y-77250000D01*
X88500000Y-79250000D02*
X88500000Y-78750000D01*
X80750000Y-64500000D02*
X80750000Y-64000000D01*
X80750000Y-68000000D02*
X80750000Y-64500000D01*
X80750000Y-64500000D02*
X80750000Y-64250000D01*
X80250000Y-64000000D02*
X80750000Y-64000000D01*
X80000000Y-64000000D02*
X80250000Y-64000000D01*
X80250000Y-64000000D02*
X80500000Y-64000000D01*
X72323002Y-93000000D02*
X72036501Y-93286501D01*
X72036501Y-93286501D02*
X72250000Y-93073002D01*
X71473002Y-93850000D02*
X72036501Y-93286501D01*
X73713499Y-92963499D02*
X73750000Y-93000000D01*
X71613499Y-93850000D02*
X72481750Y-92981750D01*
X71150000Y-93850000D02*
X71613499Y-93850000D01*
X69750000Y-93850000D02*
X71150000Y-93850000D01*
X71150000Y-93850000D02*
X71473002Y-93850000D01*
X71786501Y-92250000D02*
X72500000Y-92963499D01*
X69750000Y-92250000D02*
X71786501Y-92250000D01*
X72481750Y-92981750D02*
X72500000Y-92963499D01*
X73731750Y-92981750D02*
X73750000Y-93000000D01*
X72481750Y-92981750D02*
X73731750Y-92981750D01*
X58750000Y-92250000D02*
X59250000Y-92250000D01*
X58500000Y-92000000D02*
X58750000Y-92250000D01*
X58500000Y-91250000D02*
X58500000Y-92000000D01*
X60750000Y-91450000D02*
X59550000Y-91450000D01*
X59500000Y-91500000D02*
X59500000Y-92000000D01*
X59550000Y-91450000D02*
X59500000Y-91500000D01*
X59250000Y-92250000D02*
X59500000Y-92000000D01*
X58750000Y-92250000D02*
X58250000Y-92250000D01*
X58250000Y-92250000D02*
X58500000Y-92000000D01*
X53875000Y-104000000D02*
X53000000Y-104000000D01*
X53000000Y-104000000D02*
X52750000Y-103750000D01*
X52750000Y-103750000D02*
X52750000Y-103000000D01*
X53875000Y-102000000D02*
X53000000Y-102000000D01*
X52750000Y-102250000D02*
X52750000Y-103000000D01*
X53000000Y-102000000D02*
X52750000Y-102250000D01*
X87000000Y-69250000D02*
X87000000Y-67250000D01*
X57500000Y-92250000D02*
X58250000Y-92250000D01*
X56500000Y-93250000D02*
X57500000Y-92250000D01*
X56750000Y-93500000D02*
X56500000Y-93250000D01*
X56750000Y-94250000D02*
X56750000Y-93500000D01*
X84800000Y-93050000D02*
X84750000Y-93000000D01*
X84800000Y-96000000D02*
X84800000Y-93050000D01*
X83250000Y-108500000D02*
X83250000Y-109500000D01*
X84800000Y-94550000D02*
X84750000Y-94500000D01*
X84800000Y-96000000D02*
X84800000Y-94550000D01*
X83250000Y-108500000D02*
X83250000Y-107750000D01*
X83815685Y-107500000D02*
X83250000Y-107500000D01*
X84000000Y-107315685D02*
X83815685Y-107500000D01*
X84000000Y-106500000D02*
X84000000Y-107315685D01*
X84000000Y-105000000D02*
X84000000Y-106500000D01*
X84000000Y-106500000D02*
X84000000Y-107000000D01*
X82684315Y-107500000D02*
X83250000Y-107500000D01*
X82400000Y-107215685D02*
X82684315Y-107500000D01*
X82400000Y-106400000D02*
X82400000Y-107215685D01*
X82400000Y-105000000D02*
X82400000Y-106400000D01*
X82400000Y-106400000D02*
X82400000Y-106900000D01*
X87000000Y-77250000D02*
X87000000Y-77250000D01*
X85250000Y-94500000D02*
X84750000Y-94500000D01*
X85625000Y-94125000D02*
X85250000Y-94500000D01*
X86375000Y-94125000D02*
X85625000Y-94125000D01*
X86750000Y-93750000D02*
X86375000Y-94125000D01*
X86750000Y-93125000D02*
X86750000Y-93750000D01*
X83250000Y-107500000D02*
X83250000Y-107500000D01*
X83250000Y-107500000D02*
X83250000Y-107500000D01*
X83250000Y-107500000D02*
X83250000Y-107500000D01*
X62000000Y-100500000D02*
X62024999Y-100475001D01*
X57750000Y-100500000D02*
X62000000Y-100500000D01*
X56444999Y-89444999D02*
X56750000Y-89750000D01*
X52764999Y-89444999D02*
X56444999Y-89444999D01*
X52500000Y-89180000D02*
X52764999Y-89444999D01*
X52500000Y-88080000D02*
X52500000Y-89180000D01*
X56750000Y-96000000D02*
X56750000Y-96750000D01*
X56750000Y-96750000D02*
X56500000Y-97000000D01*
X65774999Y-100475001D02*
X66000000Y-100250000D01*
X65225001Y-100475001D02*
X65774999Y-100475001D01*
X62024999Y-100475001D02*
X65225001Y-100475001D01*
X65225001Y-100475001D02*
X65524999Y-100475001D01*
X66000000Y-100250000D02*
X66000000Y-99426992D01*
X65650000Y-99076992D02*
X65650000Y-98000000D01*
X66000000Y-99426992D02*
X65650000Y-99076992D01*
X56750000Y-91926998D02*
X56750000Y-91750000D01*
X56750000Y-89750000D02*
X56750000Y-91750000D01*
X55963499Y-92713499D02*
X56750000Y-91926998D01*
X55750000Y-92926998D02*
X55963499Y-92713499D01*
X55750000Y-98500000D02*
X57750000Y-100500000D01*
X56000000Y-97000000D02*
X55750000Y-96750000D01*
X56500000Y-97000000D02*
X56000000Y-97000000D01*
X55750000Y-96750000D02*
X55750000Y-92926998D01*
X56000000Y-97000000D02*
X55750000Y-97000000D01*
X55750000Y-97250000D02*
X56000000Y-97000000D01*
X55750000Y-97500000D02*
X55750000Y-97250000D01*
X55750000Y-98500000D02*
X55750000Y-97500000D01*
X55750000Y-97500000D02*
X55750000Y-96750000D01*
X90000000Y-95080000D02*
X88080000Y-95080000D01*
X86750000Y-91375000D02*
X86750000Y-90250000D01*
X87000000Y-90000000D02*
X88000000Y-90000000D01*
X86750000Y-90250000D02*
X87000000Y-90000000D01*
X77100000Y-100900000D02*
X78250000Y-100900000D01*
X76750000Y-101250000D02*
X77100000Y-100900000D01*
X73750000Y-101250000D02*
X76750000Y-101250000D01*
X73500000Y-101000000D02*
X73750000Y-101250000D01*
X73500000Y-98000000D02*
X73500000Y-101000000D01*
X82250000Y-89250000D02*
X73500000Y-98000000D01*
X86250000Y-89250000D02*
X82250000Y-89250000D01*
X87000000Y-90000000D02*
X86250000Y-89250000D01*
X85600000Y-96000000D02*
X85600000Y-94975010D01*
X85600000Y-94975010D02*
X86000000Y-94575010D01*
X86000000Y-94575010D02*
X86924990Y-94575010D01*
X88960000Y-92540000D02*
X90000000Y-92540000D01*
X86924990Y-94575010D02*
X88960000Y-92540000D01*
X87300000Y-97700000D02*
X90800000Y-97700000D01*
X90800000Y-97700000D02*
X91250000Y-97250000D01*
X91250000Y-91250000D02*
X90000000Y-90000000D01*
X91250000Y-97250000D02*
X91250000Y-91250000D01*
X92000000Y-98500000D02*
X87300000Y-98500000D01*
X94000000Y-96500000D02*
X92000000Y-98500000D01*
X94000000Y-92750000D02*
X94000000Y-96500000D01*
X93790000Y-92540000D02*
X94000000Y-92750000D01*
X92540000Y-92540000D02*
X93790000Y-92540000D01*
X100000000Y-93750000D02*
X100750000Y-93750000D01*
X105500000Y-94250000D02*
X105750000Y-94000000D01*
X98500000Y-93875000D02*
X98500000Y-93250000D01*
X101500000Y-92750000D02*
X103250000Y-92750000D01*
X99000000Y-93000000D02*
X99250000Y-93000000D01*
X99250000Y-93000000D02*
X100000000Y-93750000D01*
X98500000Y-93250000D02*
X98750000Y-93000000D01*
X105750000Y-94000000D02*
X105750000Y-93375000D01*
X104750000Y-94250000D02*
X105500000Y-94250000D01*
X99250000Y-93000000D02*
X99500000Y-92750000D01*
X99500000Y-92750000D02*
X101500000Y-92750000D01*
X98750000Y-93000000D02*
X99000000Y-93000000D01*
X103250000Y-92750000D02*
X104750000Y-94250000D01*
X65650000Y-87150000D02*
X65650000Y-88950000D01*
X68050000Y-84750000D02*
X65650000Y-87150000D01*
X96250000Y-56000000D02*
X94000000Y-58250000D01*
X96250000Y-55125000D02*
X96250000Y-56000000D01*
X94000000Y-82977180D02*
X93738590Y-83238590D01*
X94000000Y-82000000D02*
X94000000Y-82977180D01*
X93988590Y-82988590D02*
X93738590Y-83238590D01*
X94000000Y-58250000D02*
X94000000Y-82000000D01*
X77250000Y-83500000D02*
X76000000Y-84750000D01*
X93477180Y-83500000D02*
X77250000Y-83500000D01*
X93738590Y-83238590D02*
X93477180Y-83500000D01*
X76000000Y-84750000D02*
X68050000Y-84750000D01*
X98500000Y-53375000D02*
X98500000Y-52750000D01*
X98500000Y-52750000D02*
X98750000Y-52500000D01*
X98750000Y-52500000D02*
X99000000Y-52500000D01*
X100000000Y-53250000D02*
X100750000Y-53250000D01*
X99250000Y-52500000D02*
X100000000Y-53250000D01*
X99000000Y-52500000D02*
X99250000Y-52500000D01*
X96250000Y-53375000D02*
X96250000Y-52750000D01*
X96250000Y-52750000D02*
X96500000Y-52500000D01*
X98250000Y-52500000D02*
X98500000Y-52750000D01*
X96500000Y-52500000D02*
X98250000Y-52500000D01*
X98750000Y-52500000D02*
X98250000Y-52500000D01*
X66450000Y-87050000D02*
X66450000Y-88950000D01*
X68250000Y-85250000D02*
X66450000Y-87050000D01*
X96250000Y-65000000D02*
X94500000Y-66750000D01*
X96250000Y-64000000D02*
X96250000Y-65000000D01*
X94500000Y-82500000D02*
X94500000Y-83113590D01*
X94056795Y-83556795D02*
X94431795Y-83181795D01*
X94500000Y-66750000D02*
X94500000Y-82500000D01*
X94500000Y-83113590D02*
X94056795Y-83556795D01*
X76136410Y-85250000D02*
X75500000Y-85250000D01*
X77386410Y-84000000D02*
X76136410Y-85250000D01*
X94056795Y-83556795D02*
X93613590Y-84000000D01*
X75500000Y-85250000D02*
X68250000Y-85250000D01*
X93613590Y-84000000D02*
X77386410Y-84000000D01*
X98250000Y-61500000D02*
X98500000Y-61750000D01*
X96250000Y-62375000D02*
X96250000Y-61750000D01*
X96250000Y-61750000D02*
X96500000Y-61500000D01*
X96500000Y-61500000D02*
X98250000Y-61500000D01*
X98750000Y-61500000D02*
X98250000Y-61500000D01*
X100000000Y-62250000D02*
X100750000Y-62250000D01*
X98750000Y-61500000D02*
X99000000Y-61500000D01*
X98500000Y-61750000D02*
X98750000Y-61500000D01*
X98500000Y-62375000D02*
X98500000Y-61750000D01*
X99250000Y-61500000D02*
X100000000Y-62250000D01*
X99000000Y-61500000D02*
X99250000Y-61500000D01*
X67250000Y-87000000D02*
X67250000Y-88950000D01*
X68500000Y-85750000D02*
X67250000Y-87000000D01*
X71000000Y-85750000D02*
X68500000Y-85750000D01*
X95000000Y-83250000D02*
X93750000Y-84500000D01*
X95000000Y-75250000D02*
X95000000Y-83250000D01*
X96250000Y-74000000D02*
X95000000Y-75250000D01*
X96250000Y-73125000D02*
X96250000Y-74000000D01*
X75250000Y-85750000D02*
X75750000Y-85750000D01*
X75250000Y-85750000D02*
X75500000Y-85750000D01*
X77750000Y-84500000D02*
X78500000Y-84500000D01*
X76549990Y-85700010D02*
X77750000Y-84500000D01*
X78500000Y-84500000D02*
X78000000Y-84500000D01*
X93750000Y-84500000D02*
X78500000Y-84500000D01*
X75000000Y-85750000D02*
X76500000Y-85750000D01*
X76500000Y-85750000D02*
X77750000Y-84500000D01*
X71000000Y-85750000D02*
X75000000Y-85750000D01*
X75000000Y-85750000D02*
X75250000Y-85750000D01*
X98250000Y-70500000D02*
X98500000Y-70750000D01*
X96250000Y-71375000D02*
X96250000Y-70750000D01*
X96500000Y-70500000D02*
X98250000Y-70500000D01*
X96250000Y-70750000D02*
X96500000Y-70500000D01*
X98750000Y-70500000D02*
X98250000Y-70500000D01*
X98750000Y-70500000D02*
X99000000Y-70500000D01*
X98500000Y-71375000D02*
X98500000Y-70750000D01*
X98500000Y-70750000D02*
X98750000Y-70500000D01*
X100000000Y-71250000D02*
X100750000Y-71250000D01*
X99250000Y-70500000D02*
X100000000Y-71250000D01*
X99000000Y-70500000D02*
X99250000Y-70500000D01*
X68050000Y-86950000D02*
X68050000Y-88950000D01*
X68750000Y-86250000D02*
X68050000Y-86950000D01*
X70750000Y-86250000D02*
X68750000Y-86250000D01*
X78000000Y-85000000D02*
X76750000Y-86250000D01*
X94000000Y-85000000D02*
X78000000Y-85000000D01*
X96250000Y-82125000D02*
X96250000Y-82750000D01*
X96250000Y-82750000D02*
X94000000Y-85000000D01*
X70750000Y-86250000D02*
X76750000Y-86250000D01*
X71100000Y-90650000D02*
X69750000Y-90650000D01*
X75000000Y-86750000D02*
X71100000Y-90650000D01*
X76886410Y-86750000D02*
X76250000Y-86750000D01*
X78136410Y-85500000D02*
X76886410Y-86750000D01*
X95000000Y-92000000D02*
X95000000Y-86500000D01*
X94000000Y-85500000D02*
X78136410Y-85500000D01*
X96000000Y-92250000D02*
X95250000Y-92250000D01*
X96250000Y-92000000D02*
X96000000Y-92250000D01*
X95250000Y-92250000D02*
X95000000Y-92000000D01*
X96250000Y-91125000D02*
X96250000Y-92000000D01*
X76250000Y-86750000D02*
X75000000Y-86750000D01*
X95000000Y-86500000D02*
X94000000Y-85500000D01*
X112250000Y-51000000D02*
X107200000Y-51000000D01*
X107200000Y-51000000D02*
X103950000Y-54250000D01*
X103950000Y-54250000D02*
X103200000Y-54250000D01*
X112580000Y-54420000D02*
X112500000Y-54500000D01*
X114000000Y-54420000D02*
X112580000Y-54420000D01*
X110750000Y-52000000D02*
X112250000Y-52000000D01*
X112500000Y-52250000D02*
X112500000Y-54000000D01*
X112250000Y-52000000D02*
X112500000Y-52250000D01*
X112500000Y-54500000D02*
X112500000Y-54000000D01*
X112250000Y-54750000D02*
X112500000Y-54500000D01*
X111500000Y-54750000D02*
X112250000Y-54750000D01*
X112500000Y-51750000D02*
X112250000Y-52000000D01*
X112500000Y-51250000D02*
X112250000Y-51000000D01*
X112500000Y-52250000D02*
X112500000Y-51250000D01*
X112450000Y-60750000D02*
X112200000Y-61000000D01*
X112450000Y-60750000D02*
X112450000Y-61250000D01*
X112200000Y-61000000D02*
X112450000Y-61250000D01*
X112450000Y-63500000D02*
X112450000Y-63000000D01*
X110700000Y-61000000D02*
X112200000Y-61000000D01*
X112450000Y-61250000D02*
X112450000Y-63000000D01*
X111450000Y-63750000D02*
X112200000Y-63750000D01*
X112200000Y-63750000D02*
X112450000Y-63500000D01*
X114000000Y-63420000D02*
X112580000Y-63420000D01*
X112450000Y-60450000D02*
X112450000Y-60750000D01*
X112450000Y-60450000D02*
X112450000Y-60200000D01*
X103950000Y-63250000D02*
X103200000Y-63250000D01*
X107200000Y-60000000D02*
X103950000Y-63250000D01*
X112450000Y-60200000D02*
X112250000Y-60000000D01*
X112250000Y-60000000D02*
X107200000Y-60000000D01*
X112530000Y-63420000D02*
X112450000Y-63500000D01*
X114000000Y-63420000D02*
X112530000Y-63420000D01*
X112500000Y-69750000D02*
X112250000Y-70000000D01*
X107200000Y-69000000D02*
X103950000Y-72250000D01*
X103950000Y-72250000D02*
X103200000Y-72250000D01*
X112250000Y-69000000D02*
X107200000Y-69000000D01*
X112500000Y-70250000D02*
X112500000Y-69250000D01*
X112500000Y-69250000D02*
X112250000Y-69000000D01*
X112250000Y-70000000D02*
X112500000Y-70250000D01*
X112500000Y-72500000D02*
X112500000Y-72000000D01*
X110750000Y-70000000D02*
X112250000Y-70000000D01*
X112500000Y-70250000D02*
X112500000Y-72000000D01*
X111500000Y-72750000D02*
X112250000Y-72750000D01*
X112250000Y-72750000D02*
X112500000Y-72500000D01*
X114000000Y-72420000D02*
X112580000Y-72420000D01*
X112500000Y-78750000D02*
X112250000Y-79000000D01*
X107200000Y-78000000D02*
X103950000Y-81250000D01*
X103950000Y-81250000D02*
X103200000Y-81250000D01*
X112250000Y-78000000D02*
X107200000Y-78000000D01*
X112500000Y-79250000D02*
X112500000Y-78250000D01*
X112500000Y-78250000D02*
X112250000Y-78000000D01*
X112250000Y-79000000D02*
X112500000Y-79250000D01*
X112500000Y-81500000D02*
X112500000Y-81000000D01*
X110750000Y-79000000D02*
X112250000Y-79000000D01*
X112500000Y-79250000D02*
X112500000Y-81000000D01*
X111500000Y-81750000D02*
X112250000Y-81750000D01*
X112250000Y-81750000D02*
X112500000Y-81500000D01*
X114000000Y-81420000D02*
X112580000Y-81420000D01*
X112500000Y-87750000D02*
X112250000Y-88000000D01*
X107200000Y-87000000D02*
X103950000Y-90250000D01*
X103950000Y-90250000D02*
X103200000Y-90250000D01*
X112250000Y-87000000D02*
X107200000Y-87000000D01*
X112500000Y-88250000D02*
X112500000Y-87250000D01*
X112500000Y-87250000D02*
X112250000Y-87000000D01*
X112250000Y-88000000D02*
X112500000Y-88250000D01*
X112500000Y-90500000D02*
X112500000Y-90000000D01*
X110750000Y-88000000D02*
X112250000Y-88000000D01*
X112500000Y-88250000D02*
X112500000Y-90000000D01*
X111500000Y-90750000D02*
X112250000Y-90750000D01*
X112250000Y-90750000D02*
X112500000Y-90500000D01*
X114000000Y-90420000D02*
X112580000Y-90420000D01*
X96500000Y-88500000D02*
X98250000Y-88500000D01*
X96250000Y-89375000D02*
X96250000Y-88750000D01*
X96250000Y-88750000D02*
X96500000Y-88500000D01*
X98750000Y-88500000D02*
X98250000Y-88500000D01*
X98250000Y-88500000D02*
X98500000Y-88750000D01*
X98500000Y-88750000D02*
X98750000Y-88500000D01*
X98750000Y-88500000D02*
X99000000Y-88500000D01*
X99000000Y-88500000D02*
X99250000Y-88500000D01*
X98500000Y-89375000D02*
X98500000Y-88750000D01*
X100000000Y-89250000D02*
X100750000Y-89250000D01*
X99250000Y-88500000D02*
X100000000Y-89250000D01*
X94500000Y-92250000D02*
X96250000Y-94000000D01*
X94500000Y-89000000D02*
X94500000Y-92250000D01*
X96250000Y-94000000D02*
X96250000Y-94875000D01*
X71050000Y-91450000D02*
X69750000Y-91450000D01*
X75250000Y-87250000D02*
X71050000Y-91450000D01*
X94500000Y-88250000D02*
X94500000Y-88000000D01*
X94500000Y-89000000D02*
X94500000Y-88250000D01*
X77022820Y-87250000D02*
X76000000Y-87250000D01*
X78272820Y-86000000D02*
X77022820Y-87250000D01*
X93750000Y-86000000D02*
X78272820Y-86000000D01*
X94500000Y-86750000D02*
X93750000Y-86000000D01*
X94500000Y-88250000D02*
X94500000Y-86750000D01*
X76000000Y-87250000D02*
X75250000Y-87250000D01*
X93700000Y-99300000D02*
X87300000Y-99300000D01*
X94050000Y-99300000D02*
X93700000Y-99300000D01*
X96250000Y-101500000D02*
X94050000Y-99300000D01*
X96250000Y-102875000D02*
X96250000Y-101500000D01*
X91900000Y-100100000D02*
X87300000Y-100100000D01*
X93100000Y-100100000D02*
X91900000Y-100100000D01*
X94000000Y-101000000D02*
X93100000Y-100100000D01*
X94000000Y-112875000D02*
X94000000Y-101000000D01*
X94000000Y-120250000D02*
X94000000Y-121875000D01*
X92750000Y-116000000D02*
X94000000Y-117250000D01*
X92750000Y-101500000D02*
X92750000Y-116000000D01*
X94000000Y-117250000D02*
X94000000Y-120250000D01*
X92150000Y-100900000D02*
X92750000Y-101500000D01*
X87300000Y-100900000D02*
X92150000Y-100900000D01*
X87300000Y-101700000D02*
X91050000Y-101700000D01*
X92000000Y-102150000D02*
X91550000Y-101700000D01*
X92000000Y-116500000D02*
X92000000Y-102150000D01*
X92750000Y-117250000D02*
X92000000Y-116500000D01*
X92750000Y-124750000D02*
X92750000Y-117250000D01*
X94000000Y-126000000D02*
X92750000Y-124750000D01*
X94000000Y-130875000D02*
X94000000Y-126000000D01*
X91050000Y-101700000D02*
X91550000Y-101700000D01*
X112500000Y-96750000D02*
X112250000Y-97000000D01*
X107200000Y-96000000D02*
X103950000Y-99250000D01*
X103950000Y-99250000D02*
X103200000Y-99250000D01*
X112250000Y-96000000D02*
X107200000Y-96000000D01*
X112500000Y-97250000D02*
X112500000Y-96250000D01*
X112500000Y-96250000D02*
X112250000Y-96000000D01*
X112250000Y-97000000D02*
X112500000Y-97250000D01*
X112500000Y-99500000D02*
X112500000Y-99000000D01*
X110750000Y-97000000D02*
X112250000Y-97000000D01*
X112500000Y-97250000D02*
X112500000Y-99000000D01*
X111500000Y-99750000D02*
X112250000Y-99750000D01*
X112250000Y-99750000D02*
X112500000Y-99500000D01*
X114000000Y-99420000D02*
X112580000Y-99420000D01*
X110250000Y-105750000D02*
X110000000Y-106000000D01*
X104950000Y-105000000D02*
X101700000Y-108250000D01*
X101700000Y-108250000D02*
X100950000Y-108250000D01*
X110000000Y-105000000D02*
X104950000Y-105000000D01*
X110250000Y-106250000D02*
X110250000Y-105250000D01*
X110250000Y-105250000D02*
X110000000Y-105000000D01*
X110000000Y-106000000D02*
X110250000Y-106250000D01*
X110250000Y-108500000D02*
X110250000Y-108000000D01*
X108500000Y-106000000D02*
X110000000Y-106000000D01*
X110250000Y-106250000D02*
X110250000Y-108000000D01*
X109250000Y-108750000D02*
X110000000Y-108750000D01*
X110000000Y-108750000D02*
X110250000Y-108500000D01*
X111750000Y-108420000D02*
X110330000Y-108420000D01*
X110250000Y-114750000D02*
X110000000Y-115000000D01*
X104950000Y-114000000D02*
X101700000Y-117250000D01*
X101700000Y-117250000D02*
X100950000Y-117250000D01*
X110000000Y-114000000D02*
X104950000Y-114000000D01*
X110250000Y-115250000D02*
X110250000Y-114250000D01*
X110250000Y-114250000D02*
X110000000Y-114000000D01*
X110000000Y-115000000D02*
X110250000Y-115250000D01*
X110250000Y-117500000D02*
X110250000Y-117000000D01*
X108500000Y-115000000D02*
X110000000Y-115000000D01*
X110250000Y-115250000D02*
X110250000Y-117000000D01*
X109250000Y-117750000D02*
X110000000Y-117750000D01*
X110000000Y-117750000D02*
X110250000Y-117500000D01*
X111750000Y-117420000D02*
X110330000Y-117420000D01*
X110250000Y-123750000D02*
X110000000Y-124000000D01*
X104950000Y-123000000D02*
X101700000Y-126250000D01*
X101700000Y-126250000D02*
X100950000Y-126250000D01*
X110000000Y-123000000D02*
X104950000Y-123000000D01*
X110250000Y-124250000D02*
X110250000Y-123250000D01*
X110250000Y-123250000D02*
X110000000Y-123000000D01*
X110000000Y-124000000D02*
X110250000Y-124250000D01*
X110250000Y-126500000D02*
X110250000Y-126000000D01*
X108500000Y-124000000D02*
X110000000Y-124000000D01*
X110250000Y-124250000D02*
X110250000Y-126000000D01*
X109250000Y-126750000D02*
X110000000Y-126750000D01*
X110000000Y-126750000D02*
X110250000Y-126500000D01*
X111750000Y-126420000D02*
X110330000Y-126420000D01*
X110250000Y-132750000D02*
X110000000Y-133000000D01*
X104950000Y-132000000D02*
X101700000Y-135250000D01*
X101700000Y-135250000D02*
X100950000Y-135250000D01*
X110000000Y-132000000D02*
X104950000Y-132000000D01*
X110250000Y-133250000D02*
X110250000Y-132250000D01*
X110250000Y-132250000D02*
X110000000Y-132000000D01*
X110000000Y-133000000D02*
X110250000Y-133250000D01*
X110250000Y-135500000D02*
X110250000Y-135000000D01*
X108500000Y-133000000D02*
X110000000Y-133000000D01*
X110250000Y-133250000D02*
X110250000Y-135000000D01*
X109250000Y-135750000D02*
X110000000Y-135750000D01*
X110000000Y-135750000D02*
X110250000Y-135500000D01*
X111750000Y-135420000D02*
X110330000Y-135420000D01*
X106750000Y-59500000D02*
X106000000Y-58750000D01*
X106000000Y-58750000D02*
X103250000Y-58750000D01*
X112500000Y-58500000D02*
X112500000Y-59250000D01*
X112250000Y-58250000D02*
X112500000Y-58500000D01*
X111480330Y-58250000D02*
X112250000Y-58250000D01*
X112250000Y-59500000D02*
X112500000Y-59250000D01*
X112250000Y-59500000D02*
X106750000Y-59500000D01*
X114000000Y-59500000D02*
X112750000Y-59500000D01*
X112750000Y-59500000D02*
X112500000Y-59250000D01*
X112250000Y-59500000D02*
X112750000Y-59500000D01*
X112250000Y-68500000D02*
X112750000Y-68500000D01*
X114000000Y-68500000D02*
X112750000Y-68500000D01*
X112750000Y-68500000D02*
X112500000Y-68250000D01*
X106000000Y-67750000D02*
X103250000Y-67750000D01*
X112500000Y-67500000D02*
X112500000Y-68250000D01*
X112250000Y-67250000D02*
X112500000Y-67500000D01*
X111480330Y-67250000D02*
X112250000Y-67250000D01*
X106750000Y-68500000D02*
X106000000Y-67750000D01*
X112250000Y-68500000D02*
X112500000Y-68250000D01*
X112250000Y-68500000D02*
X106750000Y-68500000D01*
X112250000Y-77500000D02*
X112750000Y-77500000D01*
X114000000Y-77500000D02*
X112750000Y-77500000D01*
X112750000Y-77500000D02*
X112500000Y-77250000D01*
X112250000Y-77500000D02*
X106750000Y-77500000D01*
X106750000Y-77500000D02*
X106000000Y-76750000D01*
X106000000Y-76750000D02*
X103250000Y-76750000D01*
X111480330Y-76250000D02*
X112250000Y-76250000D01*
X112500000Y-76500000D02*
X112500000Y-77250000D01*
X112250000Y-77500000D02*
X112500000Y-77250000D01*
X112250000Y-76250000D02*
X112500000Y-76500000D01*
X112250000Y-86500000D02*
X112750000Y-86500000D01*
X114000000Y-86500000D02*
X112750000Y-86500000D01*
X112750000Y-86500000D02*
X112500000Y-86250000D01*
X111480330Y-85250000D02*
X112250000Y-85250000D01*
X112250000Y-86500000D02*
X112500000Y-86250000D01*
X106750000Y-86500000D02*
X106000000Y-85750000D01*
X112500000Y-85500000D02*
X112500000Y-86250000D01*
X112250000Y-86500000D02*
X106750000Y-86500000D01*
X106000000Y-85750000D02*
X103250000Y-85750000D01*
X112250000Y-85250000D02*
X112500000Y-85500000D01*
X112250000Y-104500000D02*
X112750000Y-104500000D01*
X114000000Y-104500000D02*
X112750000Y-104500000D01*
X112750000Y-104500000D02*
X112500000Y-104250000D01*
X111480330Y-103250000D02*
X112250000Y-103250000D01*
X112250000Y-104500000D02*
X112500000Y-104250000D01*
X106750000Y-104500000D02*
X106000000Y-103750000D01*
X112500000Y-103500000D02*
X112500000Y-104250000D01*
X112250000Y-104500000D02*
X106750000Y-104500000D01*
X106000000Y-103750000D02*
X103250000Y-103750000D01*
X112250000Y-103250000D02*
X112500000Y-103500000D01*
X110000000Y-113500000D02*
X110500000Y-113500000D01*
X111750000Y-113500000D02*
X110500000Y-113500000D01*
X110500000Y-113500000D02*
X110250000Y-113250000D01*
X109230330Y-112250000D02*
X110000000Y-112250000D01*
X110000000Y-113500000D02*
X110250000Y-113250000D01*
X104500000Y-113500000D02*
X103750000Y-112750000D01*
X110250000Y-112500000D02*
X110250000Y-113250000D01*
X110000000Y-113500000D02*
X104500000Y-113500000D01*
X103750000Y-112750000D02*
X101000000Y-112750000D01*
X110000000Y-112250000D02*
X110250000Y-112500000D01*
X110000000Y-122500000D02*
X110500000Y-122500000D01*
X111750000Y-122500000D02*
X110500000Y-122500000D01*
X110500000Y-122500000D02*
X110250000Y-122250000D01*
X109230330Y-121250000D02*
X110000000Y-121250000D01*
X110000000Y-122500000D02*
X110250000Y-122250000D01*
X104500000Y-122500000D02*
X103750000Y-121750000D01*
X110250000Y-121500000D02*
X110250000Y-122250000D01*
X110000000Y-122500000D02*
X104500000Y-122500000D01*
X103750000Y-121750000D02*
X101000000Y-121750000D01*
X110000000Y-121250000D02*
X110250000Y-121500000D01*
X110000000Y-131500000D02*
X110500000Y-131500000D01*
X111750000Y-131500000D02*
X110500000Y-131500000D01*
X110500000Y-131500000D02*
X110250000Y-131250000D01*
X109230330Y-130250000D02*
X110000000Y-130250000D01*
X110000000Y-131500000D02*
X110250000Y-131250000D01*
X104500000Y-131500000D02*
X103750000Y-130750000D01*
X110250000Y-130500000D02*
X110250000Y-131250000D01*
X110000000Y-131500000D02*
X104500000Y-131500000D01*
X103750000Y-130750000D02*
X101000000Y-130750000D01*
X110000000Y-130250000D02*
X110250000Y-130500000D01*
X63000000Y-122500000D02*
X63750000Y-122500000D01*
X64000000Y-122500000D02*
X63750000Y-122500000D01*
X64250000Y-122750000D02*
X64000000Y-122500000D01*
X64250000Y-123249999D02*
X64250000Y-122750000D01*
X62750001Y-125250000D02*
X63000000Y-125000000D01*
X63000000Y-125000000D02*
X63000000Y-122500000D01*
X62200000Y-122499999D02*
X63000000Y-122500000D01*
X61099999Y-125250000D02*
X62750001Y-125250000D01*
X61250000Y-99676998D02*
X61250000Y-99750000D01*
X59500000Y-97926998D02*
X61250000Y-99676998D01*
X59500000Y-96500000D02*
X59500000Y-97926998D01*
X59750000Y-96250000D02*
X59500000Y-96500000D01*
X60750000Y-96250000D02*
X59750000Y-96250000D01*
X61250000Y-118250000D02*
X61250000Y-103500000D01*
X63000000Y-120000000D02*
X61250000Y-118250000D01*
X63000000Y-122500000D02*
X63000000Y-120000000D01*
X63000000Y-128250000D02*
X63750000Y-128250000D01*
X64000000Y-128250000D02*
X63750000Y-128250000D01*
X64250000Y-128500000D02*
X64000000Y-128250000D01*
X64250000Y-128999999D02*
X64250000Y-128500000D01*
X62750001Y-131000000D02*
X63000000Y-130750000D01*
X63000000Y-130750000D02*
X63000000Y-128250000D01*
X62200000Y-128249999D02*
X63000000Y-128250000D01*
X61099999Y-131000000D02*
X62750001Y-131000000D01*
X60250000Y-99677001D02*
X60250000Y-99750000D01*
X59000000Y-98427001D02*
X60250000Y-99677001D01*
X59000000Y-96250000D02*
X59000000Y-98427001D01*
X59800000Y-95450000D02*
X59000000Y-96250000D01*
X60750000Y-95450000D02*
X59800000Y-95450000D01*
X57000000Y-126750000D02*
X62750000Y-126750000D01*
X63000000Y-127000000D02*
X63000000Y-128250000D01*
X62750000Y-126750000D02*
X63000000Y-127000000D01*
X57000000Y-126750000D02*
X56750000Y-126500000D01*
X56750000Y-126500000D02*
X56750000Y-125500000D01*
X60250000Y-103500000D02*
X60250000Y-118250000D01*
X56750000Y-121750000D02*
X56750000Y-123000000D01*
X60250000Y-118250000D02*
X56750000Y-121750000D01*
X56750000Y-125500000D02*
X56750000Y-123000000D01*
X61099999Y-136750000D02*
X62750001Y-136750000D01*
X62750001Y-136750000D02*
X63000000Y-136500000D01*
X63000000Y-136500000D02*
X63000000Y-134000000D01*
X63000000Y-134000000D02*
X63750000Y-134000000D01*
X64000000Y-134000000D02*
X63750000Y-134000000D01*
X64250000Y-134250000D02*
X64000000Y-134000000D01*
X64250000Y-134749999D02*
X64250000Y-134250000D01*
X62200000Y-134000000D02*
X63000000Y-134000000D01*
X59249997Y-99677001D02*
X59249997Y-99750000D01*
X58500000Y-96000000D02*
X58500000Y-98927004D01*
X59850000Y-94650000D02*
X58500000Y-96000000D01*
X58500000Y-98927004D02*
X59249997Y-99677001D01*
X60750000Y-94650000D02*
X59850000Y-94650000D01*
X62750000Y-132500000D02*
X63000000Y-132750000D01*
X57000000Y-132500000D02*
X62750000Y-132500000D01*
X63000000Y-132750000D02*
X63000000Y-134000000D01*
X59249997Y-103499997D02*
X59249997Y-118000003D01*
X59249997Y-118000003D02*
X56250000Y-121000000D01*
X56250000Y-131750000D02*
X57000000Y-132500000D01*
X56250000Y-121000000D02*
X56250000Y-131750000D01*
X63000000Y-139750000D02*
X63750000Y-139750000D01*
X62750000Y-142500000D02*
X63000000Y-142250000D01*
X63000000Y-142250000D02*
X63000000Y-139750000D01*
X62200000Y-139750000D02*
X63000000Y-139750000D01*
X61100000Y-142500000D02*
X62750000Y-142500000D01*
X64250000Y-140499999D02*
X64250000Y-140000000D01*
X64000000Y-139750000D02*
X63750000Y-139750000D01*
X64250000Y-140000000D02*
X64000000Y-139750000D01*
X58000000Y-99500006D02*
X58249994Y-99750000D01*
X58000000Y-94176998D02*
X58000000Y-99500006D01*
X59926998Y-92250000D02*
X58000000Y-94176998D01*
X60750000Y-92250000D02*
X59926998Y-92250000D01*
X63000000Y-138500000D02*
X63000000Y-139750000D01*
X62750000Y-138250000D02*
X63000000Y-138500000D01*
X57000000Y-138250000D02*
X62750000Y-138250000D01*
X55750000Y-137000000D02*
X57000000Y-138250000D01*
X55750000Y-120250000D02*
X55750000Y-137000000D01*
X58249994Y-117750006D02*
X55750000Y-120250000D01*
X58249994Y-103499994D02*
X58249994Y-117750006D01*
X75250000Y-139750000D02*
X76000000Y-139750000D01*
X76250000Y-139750000D02*
X76000000Y-139750000D01*
X76500000Y-140000000D02*
X76250000Y-139750000D01*
X76500000Y-140499999D02*
X76500000Y-140000000D01*
X73349999Y-142500000D02*
X75000001Y-142500000D01*
X75250000Y-142250000D02*
X75250000Y-139750000D01*
X74449999Y-139750000D02*
X75250000Y-139750000D01*
X75000001Y-142500000D02*
X75250000Y-142250000D01*
X62450000Y-99550000D02*
X62250000Y-99750000D01*
X62450000Y-98000000D02*
X62450000Y-99550000D01*
X75250000Y-138500000D02*
X75250000Y-139750000D01*
X75000000Y-138250000D02*
X75250000Y-138500000D01*
X69250000Y-138250000D02*
X75000000Y-138250000D01*
X67500000Y-136500000D02*
X69250000Y-138250000D01*
X67500000Y-121000000D02*
X67500000Y-136500000D01*
X62250000Y-115750000D02*
X67500000Y-121000000D01*
X62250000Y-103500000D02*
X62250000Y-115750000D01*
X75250000Y-134000000D02*
X76000000Y-134000000D01*
X76250000Y-134000000D02*
X76000000Y-134000000D01*
X76500000Y-134250000D02*
X76250000Y-134000000D01*
X76500000Y-134749999D02*
X76500000Y-134250000D01*
X73349999Y-136750000D02*
X75000001Y-136750000D01*
X75250000Y-136500000D02*
X75250000Y-134000000D01*
X75000001Y-136750000D02*
X75250000Y-136500000D01*
X74449999Y-134000000D02*
X75250000Y-134000000D01*
X63250000Y-98000000D02*
X63250000Y-99750000D01*
X75250000Y-132750000D02*
X75250000Y-134000000D01*
X75000000Y-132500000D02*
X75250000Y-132750000D01*
X69250000Y-132500000D02*
X75000000Y-132500000D01*
X68000000Y-131250000D02*
X69250000Y-132500000D01*
X63250000Y-103500000D02*
X63250000Y-115750000D01*
X68000000Y-120500000D02*
X68000000Y-121250000D01*
X63250000Y-115750000D02*
X68000000Y-120500000D01*
X68000000Y-121250000D02*
X68000000Y-131250000D01*
X68000000Y-121000000D02*
X68000000Y-121250000D01*
X75250000Y-128250000D02*
X76000000Y-128250000D01*
X76250000Y-128250000D02*
X76000000Y-128250000D01*
X76500000Y-128500000D02*
X76250000Y-128250000D01*
X76500000Y-128999999D02*
X76500000Y-128500000D01*
X73349999Y-131000000D02*
X75000001Y-131000000D01*
X75000001Y-131000000D02*
X75250000Y-130750000D01*
X75250000Y-130750000D02*
X75250000Y-128250000D01*
X74449999Y-128250000D02*
X75250000Y-128250000D01*
X75250000Y-128250000D02*
X75250000Y-127500000D01*
X75250000Y-127500000D02*
X75250000Y-127250000D01*
X75000000Y-126750000D02*
X69250000Y-126750000D01*
X75250000Y-127000000D02*
X75000000Y-126750000D01*
X75250000Y-127500000D02*
X75250000Y-127000000D01*
X69250000Y-126750000D02*
X68500000Y-126000000D01*
X68500000Y-126000000D02*
X68500000Y-121500000D01*
X68500000Y-121500000D02*
X68500000Y-121000000D01*
X64250000Y-105500000D02*
X72250000Y-97500000D01*
X72250000Y-96750000D02*
X71750000Y-96250000D01*
X72250000Y-97500000D02*
X72250000Y-96750000D01*
X68500000Y-121500000D02*
X68500000Y-120000000D01*
X64250000Y-115750000D02*
X64250000Y-105500000D01*
X68500000Y-120000000D02*
X64250000Y-115750000D01*
X71750000Y-96250000D02*
X69750000Y-96250000D01*
X76000000Y-123249999D02*
X76000000Y-122750000D01*
X75750000Y-122500000D02*
X75500000Y-122500000D01*
X76000000Y-122750000D02*
X75750000Y-122500000D01*
X73950000Y-122500000D02*
X74750000Y-122500000D01*
X74750000Y-122500000D02*
X75500000Y-122500000D01*
X72850000Y-125250000D02*
X74500000Y-125250000D01*
X74750000Y-125000000D02*
X74750000Y-122500000D01*
X74500000Y-125250000D02*
X74750000Y-125000000D01*
X74750000Y-122500000D02*
X74750000Y-121250000D01*
X74750000Y-121250000D02*
X73500000Y-120000000D01*
X73000000Y-96500000D02*
X72000000Y-95500000D01*
X72000000Y-95500000D02*
X69800000Y-95500000D01*
X73000000Y-97750000D02*
X73000000Y-96500000D01*
X69800000Y-95500000D02*
X69750000Y-95450000D01*
X65250000Y-105500000D02*
X73000000Y-97750000D01*
X65250000Y-115500000D02*
X65250000Y-105500000D01*
X69750000Y-120000000D02*
X65250000Y-115500000D01*
X73500000Y-120000000D02*
X69750000Y-120000000D01*
X90500000Y-140499999D02*
X90500000Y-140000000D01*
X90250000Y-139750000D02*
X90000000Y-139750000D01*
X90500000Y-140000000D02*
X90250000Y-139750000D01*
X88450000Y-139750000D02*
X89250000Y-139750000D01*
X89250000Y-139750000D02*
X90000000Y-139750000D01*
X87350000Y-142500000D02*
X89000000Y-142500000D01*
X89250000Y-142250000D02*
X89250000Y-139750000D01*
X89000000Y-142500000D02*
X89250000Y-142250000D01*
X89250000Y-138500000D02*
X89250000Y-139750000D01*
X89000000Y-138250000D02*
X89250000Y-138500000D01*
X82250000Y-138250000D02*
X89000000Y-138250000D01*
X80250000Y-136250000D02*
X80625000Y-136625000D01*
X80250000Y-115750000D02*
X80250000Y-136250000D01*
X75250000Y-110750000D02*
X80250000Y-115750000D01*
X75250000Y-103500000D02*
X75250000Y-110750000D01*
X77050000Y-101700000D02*
X75250000Y-103500000D01*
X80625000Y-136625000D02*
X82250000Y-138250000D01*
X78250000Y-101700000D02*
X77050000Y-101700000D01*
X80500000Y-136500000D02*
X80625000Y-136625000D01*
X90500000Y-134749999D02*
X90500000Y-134250000D01*
X90250000Y-134000000D02*
X90000000Y-134000000D01*
X90500000Y-134250000D02*
X90250000Y-134000000D01*
X89250000Y-134000000D02*
X90000000Y-134000000D01*
X89000000Y-136750000D02*
X89250000Y-136500000D01*
X89250000Y-136500000D02*
X89250000Y-134000000D01*
X88450000Y-134000000D02*
X89250000Y-134000000D01*
X87350000Y-136750000D02*
X89000000Y-136750000D01*
X89250000Y-132750000D02*
X89250000Y-134000000D01*
X89000000Y-132500000D02*
X89250000Y-132750000D01*
X82250000Y-132500000D02*
X89000000Y-132500000D01*
X81000000Y-131250000D02*
X82250000Y-132500000D01*
X81000000Y-115500000D02*
X81000000Y-131250000D01*
X76000000Y-103750000D02*
X76000000Y-110500000D01*
X77250000Y-102500000D02*
X76000000Y-103750000D01*
X76000000Y-110500000D02*
X81000000Y-115500000D01*
X78250000Y-102500000D02*
X77250000Y-102500000D01*
X90500000Y-128999999D02*
X90500000Y-128500000D01*
X90250000Y-128250000D02*
X90000000Y-128250000D01*
X90500000Y-128500000D02*
X90250000Y-128250000D01*
X89250000Y-128250000D02*
X90000000Y-128250000D01*
X89000000Y-131000000D02*
X89250000Y-130750000D01*
X89250000Y-130750000D02*
X89250000Y-128250000D01*
X88450000Y-128250000D02*
X89250000Y-128250000D01*
X87350000Y-131000000D02*
X89000000Y-131000000D01*
X76750000Y-110250000D02*
X76750000Y-103750000D01*
X81500000Y-115000000D02*
X76750000Y-110250000D01*
X77200000Y-103300000D02*
X78250000Y-103300000D01*
X81500000Y-126000000D02*
X81500000Y-115000000D01*
X82250000Y-126750000D02*
X81500000Y-126000000D01*
X89000000Y-126750000D02*
X82250000Y-126750000D01*
X89250000Y-127000000D02*
X89000000Y-126750000D01*
X76750000Y-103750000D02*
X77200000Y-103300000D01*
X89250000Y-128250000D02*
X89250000Y-127000000D01*
X90500000Y-123249999D02*
X90500000Y-122750000D01*
X90250000Y-122500000D02*
X90000000Y-122500000D01*
X90500000Y-122750000D02*
X90250000Y-122500000D01*
X89250000Y-122500000D02*
X90000000Y-122500000D01*
X89000000Y-125250000D02*
X89250000Y-125000000D01*
X89250000Y-125000000D02*
X89250000Y-122500000D01*
X88450000Y-122500000D02*
X89250000Y-122500000D01*
X87350000Y-125250000D02*
X89000000Y-125250000D01*
X80000000Y-112500000D02*
X80000000Y-105000000D01*
X82000000Y-120750000D02*
X82000000Y-114500000D01*
X82250000Y-121000000D02*
X82000000Y-120750000D01*
X89000000Y-121000000D02*
X82250000Y-121000000D01*
X89250000Y-121250000D02*
X89000000Y-121000000D01*
X82000000Y-114500000D02*
X80000000Y-112500000D01*
X89250000Y-122500000D02*
X89250000Y-121250000D01*
X124250000Y-139750000D02*
X124250000Y-137500000D01*
X116750000Y-147250000D02*
X124250000Y-139750000D01*
X69636410Y-147250000D02*
X116750000Y-147250000D01*
X66500000Y-127750000D02*
X66500000Y-144113590D01*
X64250000Y-125500000D02*
X66500000Y-127750000D01*
X66500000Y-144113590D02*
X69636410Y-147250000D01*
X64250000Y-124999999D02*
X64250000Y-125500000D01*
X64250000Y-130749999D02*
X64250000Y-131250000D01*
X64250000Y-131250000D02*
X65500000Y-132500000D01*
X65500000Y-132500000D02*
X66000000Y-133000000D01*
X66000000Y-133000000D02*
X66000000Y-144250000D01*
X66000000Y-144250000D02*
X69250000Y-147500000D01*
X69250000Y-147500000D02*
X69500000Y-147750000D01*
X69500000Y-147750000D02*
X71000000Y-147750000D01*
X71000000Y-147750000D02*
X87500000Y-147750000D01*
X87500000Y-147750000D02*
X101000000Y-147750000D01*
X102500000Y-147750000D02*
X119750000Y-147750000D01*
X101000000Y-147750000D02*
X102500000Y-147750000D01*
X102500000Y-147750000D02*
X102750000Y-147750000D01*
X127750000Y-139750000D02*
X127750000Y-137500000D01*
X119750000Y-147750000D02*
X127750000Y-139750000D01*
X122750000Y-148250000D02*
X131250000Y-139750000D01*
X131250000Y-139750000D02*
X131250000Y-137500000D01*
X69250000Y-148250000D02*
X122750000Y-148250000D01*
X65500000Y-144500000D02*
X69250000Y-148250000D01*
X65500000Y-138500000D02*
X65500000Y-144500000D01*
X64250000Y-137250000D02*
X65500000Y-138500000D01*
X64250000Y-136499999D02*
X64250000Y-137250000D01*
X64250000Y-142249999D02*
X64250000Y-142750000D01*
X64250000Y-142750000D02*
X64250000Y-144000000D01*
X64250000Y-144000000D02*
X69000000Y-148750000D01*
X69000000Y-148750000D02*
X71000000Y-148750000D01*
X71000000Y-148750000D02*
X87250000Y-148750000D01*
X87250000Y-148750000D02*
X87500000Y-148750000D01*
X102500000Y-148750000D02*
X125750000Y-148750000D01*
X87250000Y-148750000D02*
X102500000Y-148750000D01*
X102500000Y-148750000D02*
X102750000Y-148750000D01*
X134750000Y-139750000D02*
X134750000Y-137500000D01*
X125750000Y-148750000D02*
X134750000Y-139750000D01*
X129250000Y-124000000D02*
X135750000Y-124000000D01*
X117250000Y-136000000D02*
X129250000Y-124000000D01*
X117250000Y-143750000D02*
X117250000Y-136000000D01*
X114250000Y-146750000D02*
X117250000Y-143750000D01*
X79750000Y-146750000D02*
X114250000Y-146750000D01*
X76500000Y-143500000D02*
X79750000Y-146750000D01*
X76500000Y-142249999D02*
X76500000Y-143500000D01*
X131500000Y-120500000D02*
X135750000Y-120500000D01*
X77750000Y-144000000D02*
X80000000Y-146250000D01*
X77750000Y-138250000D02*
X77750000Y-144000000D01*
X116750000Y-143500000D02*
X116750000Y-135250000D01*
X76500000Y-137000000D02*
X77750000Y-138250000D01*
X116750000Y-135250000D02*
X131500000Y-120500000D01*
X114000000Y-146250000D02*
X116750000Y-143500000D01*
X80000000Y-146250000D02*
X114000000Y-146250000D01*
X76500000Y-136499999D02*
X76500000Y-137000000D01*
X116250000Y-143250000D02*
X116250000Y-134500000D01*
X80250000Y-145750000D02*
X113750000Y-145750000D01*
X78250000Y-133000000D02*
X78250000Y-143750000D01*
X113750000Y-145750000D02*
X116250000Y-143250000D01*
X76500000Y-131250000D02*
X78250000Y-133000000D01*
X78250000Y-143750000D02*
X80250000Y-145750000D01*
X76500000Y-130749999D02*
X76500000Y-131250000D01*
X133750000Y-117000000D02*
X128375000Y-122375000D01*
X135750000Y-117000000D02*
X133750000Y-117000000D01*
X116250000Y-134500000D02*
X128375000Y-122375000D01*
X76000000Y-125750000D02*
X76000000Y-124999999D01*
X78750000Y-143613590D02*
X78750000Y-128500000D01*
X80386410Y-145250000D02*
X78750000Y-143613590D01*
X113500000Y-145250000D02*
X80386410Y-145250000D01*
X115750000Y-143000000D02*
X113500000Y-145250000D01*
X127750000Y-121750000D02*
X115750000Y-133750000D01*
X127750000Y-119500000D02*
X127750000Y-121750000D01*
X78750000Y-128500000D02*
X76000000Y-125750000D01*
X115750000Y-133750000D02*
X115750000Y-143000000D01*
X133750000Y-113500000D02*
X127750000Y-119500000D01*
X135750000Y-113500000D02*
X133750000Y-113500000D01*
X90500000Y-142249999D02*
X90500000Y-142750000D01*
X90500000Y-142750000D02*
X92250000Y-144500000D01*
X92250000Y-144500000D02*
X92500000Y-144750000D01*
X92500000Y-144750000D02*
X94250000Y-144750000D01*
X94250000Y-144750000D02*
X102500000Y-144750000D01*
X102500000Y-144750000D02*
X102750000Y-144750000D01*
X133750000Y-103500000D02*
X135750000Y-103500000D01*
X126750000Y-110500000D02*
X133750000Y-103500000D01*
X126750000Y-121500000D02*
X126750000Y-110500000D01*
X115250000Y-133000000D02*
X126750000Y-121500000D01*
X115250000Y-142750000D02*
X115250000Y-133000000D01*
X113250000Y-144750000D02*
X115250000Y-142750000D01*
X102500000Y-144750000D02*
X113250000Y-144750000D01*
X90500000Y-137000000D02*
X90500000Y-136499999D01*
X92250000Y-138750000D02*
X90500000Y-137000000D01*
X92250000Y-142750000D02*
X92250000Y-143500000D01*
X92250000Y-143159230D02*
X92250000Y-142750000D01*
X92250000Y-142750000D02*
X92250000Y-138750000D01*
X92250000Y-143159230D02*
X92250000Y-143500000D01*
X133750000Y-100000000D02*
X135750000Y-100000000D01*
X125750000Y-108000000D02*
X133750000Y-100000000D01*
X125750000Y-121250000D02*
X125750000Y-108000000D01*
X114750000Y-142500000D02*
X114750000Y-132250000D01*
X114750000Y-132250000D02*
X125750000Y-121250000D01*
X113000000Y-144250000D02*
X114750000Y-142500000D01*
X93000000Y-144250000D02*
X113000000Y-144250000D01*
X92250000Y-143500000D02*
X93000000Y-144250000D01*
X90500000Y-131250000D02*
X90500000Y-130749999D01*
X92750000Y-142750000D02*
X92750000Y-143250000D01*
X92750000Y-143022820D02*
X92750000Y-142750000D01*
X92750000Y-143250000D02*
X93250000Y-143750000D01*
X91750000Y-137250000D02*
X92750000Y-138250000D01*
X91750000Y-132500000D02*
X91750000Y-137250000D01*
X92750000Y-142750000D02*
X92750000Y-138250000D01*
X91750000Y-132500000D02*
X90500000Y-131250000D01*
X93250000Y-143750000D02*
X102500000Y-143750000D01*
X102500000Y-143750000D02*
X102750000Y-143750000D01*
X124750000Y-105500000D02*
X133750000Y-96500000D01*
X124750000Y-121000000D02*
X124750000Y-105500000D01*
X133750000Y-96500000D02*
X135750000Y-96500000D01*
X114250000Y-131500000D02*
X124750000Y-121000000D01*
X114250000Y-142136410D02*
X114250000Y-131500000D01*
X112636410Y-143750000D02*
X114250000Y-142136410D01*
X102500000Y-143750000D02*
X112636410Y-143750000D01*
X133750000Y-93000000D02*
X135750000Y-93000000D01*
X123750000Y-103000000D02*
X133750000Y-93000000D01*
X113750000Y-130750000D02*
X123750000Y-120750000D01*
X113750000Y-142000000D02*
X113750000Y-130750000D01*
X112500000Y-143250000D02*
X113750000Y-142000000D01*
X93500000Y-143250000D02*
X112500000Y-143250000D01*
X123750000Y-120750000D02*
X123750000Y-103000000D01*
X93250000Y-143000000D02*
X93500000Y-143250000D01*
X93250000Y-137750000D02*
X93250000Y-143000000D01*
X92250000Y-136750000D02*
X93250000Y-137750000D01*
X92250000Y-127250000D02*
X92250000Y-136750000D01*
X90500000Y-125500000D02*
X92250000Y-127250000D01*
X90500000Y-124999999D02*
X90500000Y-125500000D01*
X110000000Y-140500000D02*
X110500000Y-140500000D01*
X111750000Y-140500000D02*
X110500000Y-140500000D01*
X110500000Y-140500000D02*
X110250000Y-140250000D01*
X109230330Y-139250000D02*
X110000000Y-139250000D01*
X110000000Y-140500000D02*
X110250000Y-140250000D01*
X104500000Y-140500000D02*
X103750000Y-139750000D01*
X110250000Y-139500000D02*
X110250000Y-140250000D01*
X110000000Y-140500000D02*
X104500000Y-140500000D01*
X103750000Y-139750000D02*
X101000000Y-139750000D01*
X110000000Y-139250000D02*
X110250000Y-139500000D01*
X112250000Y-95500000D02*
X112750000Y-95500000D01*
X114000000Y-95500000D02*
X112750000Y-95500000D01*
X112750000Y-95500000D02*
X112500000Y-95250000D01*
X111480330Y-94250000D02*
X112250000Y-94250000D01*
X112250000Y-95500000D02*
X112500000Y-95250000D01*
X106750000Y-95500000D02*
X106000000Y-94750000D01*
X112500000Y-94500000D02*
X112500000Y-95250000D01*
X112250000Y-95500000D02*
X106750000Y-95500000D01*
X106000000Y-94750000D02*
X103250000Y-94750000D01*
X112250000Y-94250000D02*
X112500000Y-94500000D01*
X67250000Y-99500000D02*
X67250000Y-100272820D01*
X67250000Y-98000000D02*
X67250000Y-99500000D01*
X66072810Y-101450010D02*
X66386410Y-101136410D01*
X67250000Y-100272820D02*
X66386410Y-101136410D01*
X55040000Y-96710000D02*
X54750000Y-97000000D01*
X55040000Y-95710000D02*
X55040000Y-96710000D01*
X55040000Y-95960000D02*
X55040000Y-95710000D01*
X55040000Y-95710000D02*
X55040000Y-90120000D01*
X66022820Y-101500000D02*
X66386410Y-101136410D01*
X53500000Y-98250000D02*
X57000000Y-101500000D01*
X57000000Y-101500000D02*
X66022820Y-101500000D01*
X52500000Y-94750000D02*
X52500000Y-94886410D01*
X52500000Y-90120000D02*
X52500000Y-94750000D01*
X52500000Y-95886410D02*
X52500000Y-94750000D01*
X65886410Y-101000000D02*
X57613590Y-101000000D01*
X66450009Y-100436401D02*
X65886410Y-101000000D01*
X66450009Y-99800009D02*
X66450009Y-100436401D01*
X66450000Y-99800000D02*
X66450009Y-99800009D01*
X57613590Y-101000000D02*
X52500000Y-95886410D01*
X66450000Y-98000000D02*
X66450000Y-99800000D01*
X70250000Y-57500000D02*
X69500000Y-57500000D01*
X69500000Y-57500000D02*
X69250000Y-57750000D01*
X69250000Y-57750000D02*
X69250000Y-58750000D01*
X69250000Y-58750000D02*
X71500000Y-61000000D01*
X73600000Y-63100000D02*
X71500000Y-61000000D01*
X73600000Y-68050000D02*
X73600000Y-63100000D01*
X73600000Y-68050000D02*
X73600000Y-70550000D01*
X76500000Y-57500000D02*
X77250000Y-57500000D01*
X77250000Y-57500000D02*
X77500000Y-57750000D01*
X77500000Y-59900000D02*
X76400000Y-61000000D01*
X77500000Y-57750000D02*
X77500000Y-59900000D01*
X74250000Y-63150000D02*
X76400000Y-61000000D01*
X74250000Y-68050000D02*
X74250000Y-63150000D01*
X74250000Y-68050000D02*
X74250000Y-70550000D01*
X71250000Y-55000000D02*
X72750000Y-55000000D01*
X73000000Y-53250000D02*
X72750000Y-53000000D01*
X72750000Y-55000000D02*
X73000000Y-54750000D01*
X71350000Y-53000000D02*
X72750000Y-53000000D01*
X73250000Y-53000000D02*
X73000000Y-53250000D01*
X73500000Y-53000000D02*
X73250000Y-53000000D01*
X72750000Y-53000000D02*
X73500000Y-53000000D01*
X73500000Y-53000000D02*
X74085000Y-53000000D01*
X73250000Y-55000000D02*
X73000000Y-54750000D01*
X73500000Y-55000000D02*
X73250000Y-55000000D01*
X72750000Y-55000000D02*
X73500000Y-55000000D01*
X73500000Y-55000000D02*
X74125000Y-55000000D01*
X73000000Y-54750000D02*
X73000000Y-54000000D01*
X73000000Y-54000000D02*
X73000000Y-53250000D01*
X68001787Y-61251787D02*
X66500000Y-59750000D01*
X68001787Y-65012213D02*
X68001787Y-61251787D01*
X66454000Y-66560000D02*
X68001787Y-65012213D01*
X65454000Y-66560000D02*
X66454000Y-66560000D01*
X66500000Y-57500000D02*
X67000000Y-57000000D01*
X66500000Y-59750000D02*
X66500000Y-58000000D01*
X66500000Y-58000000D02*
X66500000Y-57500000D01*
X76500000Y-55000000D02*
X75875000Y-55000000D01*
X76750000Y-55250000D02*
X76500000Y-55000000D01*
X76750000Y-55250000D02*
X76750000Y-54750000D01*
X76500000Y-55000000D02*
X76750000Y-54750000D01*
X64250000Y-64086000D02*
X62914000Y-62750000D01*
X64250000Y-65000000D02*
X64250000Y-64086000D01*
X64500000Y-65250000D02*
X64250000Y-65000000D01*
X67551777Y-64301777D02*
X66603554Y-65250000D01*
X66000000Y-56750000D02*
X66000000Y-60146446D01*
X66500000Y-56250000D02*
X66000000Y-56750000D01*
X76500000Y-56250000D02*
X66500000Y-56250000D01*
X67551777Y-61698223D02*
X67551777Y-64301777D01*
X76750000Y-56000000D02*
X76500000Y-56250000D01*
X66603554Y-65250000D02*
X64500000Y-65250000D01*
X66000000Y-60146446D02*
X67551777Y-61698223D01*
X76750000Y-55250000D02*
X76750000Y-56000000D01*
X78150000Y-69237499D02*
X78150000Y-70550000D01*
X78225000Y-69162499D02*
X78150000Y-69237499D01*
X78225000Y-54828554D02*
X78225000Y-69162499D01*
X77646446Y-54250000D02*
X78225000Y-54828554D01*
X77250000Y-54250000D02*
X77646446Y-54250000D01*
X76750000Y-54750000D02*
X77250000Y-54250000D01*
X76500000Y-53000000D02*
X75875000Y-53000000D01*
X76750000Y-52750000D02*
X76500000Y-53000000D01*
X76750000Y-52750000D02*
X76750000Y-53250000D01*
X76500000Y-53000000D02*
X76750000Y-53250000D01*
X76750000Y-52000000D02*
X76750000Y-52750000D01*
X66500000Y-52250000D02*
X67000000Y-51750000D01*
X66500000Y-55613590D02*
X66500000Y-52250000D01*
X65500000Y-60353554D02*
X65500000Y-56613590D01*
X76500000Y-51750000D02*
X76750000Y-52000000D01*
X65500000Y-56613590D02*
X66500000Y-55613590D01*
X67073223Y-61926777D02*
X65500000Y-60353554D01*
X67073223Y-63426777D02*
X67073223Y-61926777D01*
X66480000Y-64020000D02*
X67073223Y-63426777D01*
X67000000Y-51750000D02*
X76500000Y-51750000D01*
X65454000Y-64020000D02*
X66480000Y-64020000D01*
X78800000Y-69237499D02*
X78800000Y-70550000D01*
X78725000Y-69162499D02*
X78800000Y-69237499D01*
X76750000Y-53250000D02*
X77250000Y-53750000D01*
X77853554Y-53750000D02*
X78725000Y-54621446D01*
X78725000Y-54621446D02*
X78725000Y-69162499D01*
X77250000Y-53750000D02*
X77853554Y-53750000D01*
X79450000Y-77750000D02*
X79450000Y-81200000D01*
X79450000Y-81200000D02*
X79750000Y-81500000D01*
X79750000Y-81500000D02*
X80750000Y-81500000D01*
X81000000Y-81250000D02*
X81000000Y-80625000D01*
X80750000Y-81500000D02*
X81000000Y-81250000D01*
X60750000Y-66896446D02*
X60750000Y-71853554D01*
X61971446Y-65675000D02*
X60750000Y-66896446D01*
X62529000Y-65675000D02*
X61971446Y-65675000D01*
X62914000Y-65290000D02*
X62529000Y-65675000D01*
X60750000Y-71853554D02*
X65500000Y-76603554D01*
X65250000Y-77500000D02*
X65500000Y-77250000D01*
X65500000Y-76603554D02*
X65500000Y-77250000D01*
X65500000Y-77750000D02*
X65250000Y-77500000D01*
X65500000Y-77250000D02*
X65500000Y-77750000D01*
X78800000Y-79062501D02*
X78800000Y-77750000D01*
X78725000Y-79137501D02*
X78800000Y-79062501D01*
X78725000Y-80775000D02*
X78725000Y-79137501D01*
X78250000Y-81250000D02*
X78725000Y-80775000D01*
X66396446Y-81250000D02*
X78250000Y-81250000D01*
X65500000Y-80353554D02*
X66396446Y-81250000D01*
X65500000Y-77750000D02*
X65500000Y-80353554D01*
X64750000Y-77500000D02*
X63875000Y-77500000D01*
X64750000Y-77500000D02*
X65250000Y-77500000D01*
X61250000Y-71646446D02*
X66000000Y-76396446D01*
X61250000Y-67103554D02*
X61250000Y-71646446D01*
X61988553Y-66365001D02*
X61250000Y-67103554D01*
X63989001Y-66819999D02*
X63534003Y-66365001D01*
X65454000Y-69100000D02*
X63989001Y-67635001D01*
X63989001Y-67635001D02*
X63989001Y-66819999D01*
X63534003Y-66365001D02*
X61988553Y-66365001D01*
X66750000Y-79500000D02*
X66000000Y-79500000D01*
X66250000Y-79500000D02*
X66000000Y-79750000D01*
X66750000Y-79500000D02*
X66250000Y-79500000D01*
X66000000Y-79500000D02*
X66000000Y-79750000D01*
X66000000Y-79250000D02*
X66250000Y-79500000D01*
X66000000Y-79000000D02*
X66000000Y-79250000D01*
X66000000Y-76396446D02*
X66000000Y-79000000D01*
X66000000Y-79000000D02*
X66000000Y-79500000D01*
X64750000Y-79500000D02*
X64499999Y-79500001D01*
X66000000Y-80146446D02*
X66000000Y-79750000D01*
X66603554Y-80750000D02*
X66000000Y-80146446D01*
X78000000Y-80750000D02*
X66603554Y-80750000D01*
X78225000Y-79137501D02*
X78225000Y-80525000D01*
X78150000Y-79062501D02*
X78225000Y-79137501D01*
X78225000Y-80525000D02*
X78000000Y-80750000D01*
X78150000Y-77750000D02*
X78150000Y-79062501D01*
X63875001Y-79500000D02*
X63875000Y-79500001D01*
X64750000Y-79500000D02*
X63875001Y-79500000D01*
X72000000Y-79926998D02*
X72000000Y-80000000D01*
X72950000Y-78976998D02*
X72000000Y-79926998D01*
X72950000Y-77750000D02*
X72950000Y-78976998D01*
X68250000Y-99500000D02*
X68050000Y-99300000D01*
X69250000Y-99500000D02*
X68250000Y-99500000D01*
X68050000Y-99300000D02*
X68050000Y-98000000D01*
X69750000Y-99000000D02*
X69250000Y-99500000D01*
X69750000Y-97750000D02*
X69750000Y-99000000D01*
X55625000Y-102000000D02*
X64000000Y-102000000D01*
X64750000Y-102000000D02*
X65250000Y-102500000D01*
X64000000Y-102000000D02*
X64750000Y-102000000D01*
X65250006Y-99400006D02*
X65250006Y-99750000D01*
X64850000Y-99000000D02*
X65250006Y-99400006D01*
X64850000Y-98000000D02*
X64850000Y-99000000D01*
X74400000Y-100100000D02*
X74250000Y-100250000D01*
X78250000Y-100100000D02*
X74400000Y-100100000D01*
X64050000Y-99549997D02*
X64250003Y-99750000D01*
X64050000Y-98000000D02*
X64050000Y-99549997D01*
X64000000Y-102500000D02*
X64250000Y-102750000D01*
X56250000Y-104000000D02*
X57750000Y-102500000D01*
X57750000Y-102500000D02*
X64000000Y-102500000D01*
X55625000Y-104000000D02*
X56250000Y-104000000D01*
X74300000Y-99300000D02*
X74250000Y-99250000D01*
X78250000Y-99300000D02*
X74300000Y-99300000D01*
X75550000Y-79450000D02*
X75000000Y-80000000D01*
X75550000Y-77750000D02*
X75550000Y-79450000D01*
X52500000Y-86640000D02*
X52500000Y-85540000D01*
X52610000Y-86750000D02*
X52500000Y-86640000D01*
X55995002Y-86750000D02*
X52610000Y-86750000D01*
X59500000Y-90500000D02*
X59500000Y-88250000D01*
X59650000Y-90650000D02*
X59500000Y-90500000D01*
X60750000Y-90650000D02*
X59650000Y-90650000D01*
X56997501Y-87752499D02*
X55995002Y-86750000D01*
X75500000Y-82934315D02*
X75500000Y-83500000D01*
X74315685Y-81750000D02*
X75500000Y-82934315D01*
X51000000Y-82000000D02*
X51250000Y-81750000D01*
X51000000Y-85250000D02*
X51000000Y-82000000D01*
X51290000Y-85540000D02*
X51000000Y-85250000D01*
X52500000Y-85540000D02*
X51290000Y-85540000D01*
X56997501Y-87752499D02*
X58997501Y-87752499D01*
X58997501Y-87752499D02*
X59000000Y-87750000D01*
X59000000Y-87750000D02*
X59500000Y-88250000D01*
X59000000Y-81750000D02*
X57250000Y-81750000D01*
X57250000Y-81750000D02*
X57500000Y-81750000D01*
X51250000Y-81750000D02*
X57250000Y-81750000D01*
X59000000Y-81750000D02*
X74315685Y-81750000D01*
X53750000Y-84250000D02*
X53500000Y-84000000D01*
X53500000Y-84000000D02*
X53675001Y-84175001D01*
X56500000Y-84250000D02*
X53750000Y-84250000D01*
X52500000Y-83000000D02*
X53500000Y-84000000D01*
X62450000Y-87700000D02*
X62450000Y-88950000D01*
X61487347Y-86737347D02*
X62450000Y-87700000D01*
X57012653Y-86737347D02*
X56512653Y-86237347D01*
X58512653Y-86737347D02*
X57012653Y-86737347D01*
X58512653Y-86737347D02*
X61487347Y-86737347D01*
X57750000Y-83000000D02*
X57000000Y-83750000D01*
X59125000Y-83000000D02*
X57750000Y-83000000D01*
X57000000Y-83750000D02*
X56500000Y-84250000D01*
X57250000Y-83500000D02*
X57000000Y-83750000D01*
X55080000Y-85500000D02*
X55040000Y-85540000D01*
X63250000Y-87750000D02*
X63250000Y-88950000D01*
X56750000Y-85500000D02*
X57000000Y-85500000D01*
X56750000Y-85500000D02*
X55080000Y-85500000D01*
X57250000Y-85500000D02*
X56750000Y-85500000D01*
X61750000Y-86250000D02*
X62500000Y-87000000D01*
X58000000Y-86250000D02*
X61750000Y-86250000D01*
X62500000Y-87000000D02*
X63250000Y-87750000D01*
X57250000Y-85500000D02*
X58000000Y-86250000D01*
X57750000Y-85000000D02*
X57250000Y-85500000D01*
X59125000Y-85000000D02*
X57750000Y-85000000D01*
X69750000Y-83500000D02*
X70500000Y-83500000D01*
X70250000Y-83500000D02*
X69750000Y-83500000D01*
X76200000Y-79200000D02*
X76500000Y-79500000D01*
X76200000Y-77750000D02*
X76200000Y-79200000D01*
X64050000Y-87200000D02*
X64050000Y-88950000D01*
X67750000Y-83500000D02*
X64050000Y-87200000D01*
X69750000Y-83500000D02*
X67750000Y-83500000D01*
X71650000Y-70550000D02*
X71650000Y-72100000D01*
X71650000Y-72100000D02*
X70250000Y-73500000D01*
X68363590Y-73500000D02*
X64250000Y-73500000D01*
X70250000Y-73500000D02*
X68363590Y-73500000D01*
X54000000Y-66250000D02*
X62750000Y-75000000D01*
X54000000Y-61000000D02*
X54000000Y-66250000D01*
X53565600Y-60565600D02*
X54000000Y-61000000D01*
X52500000Y-60565600D02*
X53565600Y-60565600D01*
X72300000Y-72086410D02*
X70136410Y-74250000D01*
X72300000Y-70550000D02*
X72300000Y-72086410D01*
X52500000Y-71284400D02*
X53534400Y-70250000D01*
X57345002Y-70250000D02*
X61750000Y-74654998D01*
X53534400Y-70250000D02*
X57345002Y-70250000D01*
X61750000Y-74654998D02*
X61750000Y-75250000D01*
X62250000Y-75750000D02*
X63500000Y-75750000D01*
X61750000Y-75250000D02*
X62250000Y-75750000D01*
X70136410Y-74250000D02*
X65000000Y-74250000D01*
X77500000Y-79426998D02*
X77500000Y-80000000D01*
X76850000Y-78776998D02*
X77500000Y-79426998D01*
X76850000Y-77750000D02*
X76850000Y-78776998D01*
X64850000Y-87100000D02*
X64850000Y-88950000D01*
X67700000Y-84250000D02*
X64850000Y-87100000D01*
X71250000Y-84250000D02*
X67700000Y-84250000D01*
X71500000Y-84000000D02*
X71250000Y-84250000D01*
X71500000Y-83500000D02*
X71500000Y-84000000D01*
X120750000Y-62500000D02*
X120750000Y-57500000D01*
X120210000Y-56960000D02*
X119210000Y-56960000D01*
X120750000Y-57500000D02*
X120210000Y-56960000D01*
X114000000Y-56960000D02*
X119210000Y-56960000D01*
X122790000Y-65960000D02*
X124250000Y-64500000D01*
X124250000Y-64500000D02*
X124250000Y-62500000D01*
X114000000Y-65960000D02*
X122790000Y-65960000D01*
X115540000Y-74960000D02*
X114000000Y-74960000D01*
X116500000Y-74000000D02*
X115540000Y-74960000D01*
X116500000Y-68000000D02*
X116500000Y-74000000D01*
X117750000Y-66750000D02*
X116500000Y-68000000D01*
X125500000Y-66750000D02*
X117750000Y-66750000D01*
X127750000Y-64500000D02*
X125500000Y-66750000D01*
X127750000Y-62500000D02*
X127750000Y-64500000D01*
X131250000Y-62500000D02*
X131250000Y-64500000D01*
X128250000Y-67500000D02*
X127250000Y-67500000D01*
X131250000Y-64500000D02*
X128250000Y-67500000D01*
X119500000Y-67500000D02*
X119250000Y-67500000D01*
X127250000Y-67500000D02*
X119500000Y-67500000D01*
X115540000Y-83960000D02*
X114000000Y-83960000D01*
X117250000Y-68500000D02*
X117250000Y-82250000D01*
X118250000Y-67500000D02*
X117250000Y-68500000D01*
X117250000Y-82250000D02*
X115540000Y-83960000D01*
X119500000Y-67500000D02*
X118250000Y-67500000D01*
X118000000Y-90500000D02*
X115540000Y-92960000D01*
X118000000Y-69000000D02*
X118000000Y-90500000D01*
X118750000Y-68250000D02*
X118000000Y-69000000D01*
X131250000Y-68250000D02*
X118750000Y-68250000D01*
X115540000Y-92960000D02*
X114000000Y-92960000D01*
X134750000Y-64750000D02*
X131250000Y-68250000D01*
X134750000Y-62500000D02*
X134750000Y-64750000D01*
X115540000Y-101960000D02*
X114000000Y-101960000D01*
X119750000Y-97750000D02*
X115540000Y-101960000D01*
X119750000Y-76000000D02*
X119750000Y-97750000D01*
X123250000Y-72500000D02*
X119750000Y-76000000D01*
X135000000Y-72500000D02*
X123250000Y-72500000D01*
X113290000Y-110960000D02*
X111750000Y-110960000D01*
X123250000Y-76000000D02*
X120500000Y-78750000D01*
X135000000Y-76000000D02*
X123250000Y-76000000D01*
X120500000Y-103750000D02*
X113290000Y-110960000D01*
X120500000Y-98750000D02*
X120500000Y-103750000D01*
X120500000Y-78750000D02*
X120500000Y-98750000D01*
X113290000Y-119960000D02*
X111750000Y-119960000D01*
X123250000Y-79500000D02*
X121250000Y-81500000D01*
X135000000Y-79500000D02*
X123250000Y-79500000D01*
X121250000Y-112000000D02*
X113290000Y-119960000D01*
X121250000Y-103000000D02*
X121250000Y-112000000D01*
X121250000Y-81500000D02*
X121250000Y-103000000D01*
X113210000Y-128960000D02*
X111750000Y-128960000D01*
X123250000Y-83000000D02*
X122000000Y-84250000D01*
X135000000Y-83000000D02*
X123250000Y-83000000D01*
X122000000Y-110000000D02*
X122000000Y-120170000D01*
X122000000Y-120170000D02*
X113210000Y-128960000D01*
X122000000Y-84250000D02*
X122000000Y-110000000D01*
X123250000Y-86500000D02*
X135000000Y-86500000D01*
X113250000Y-137750000D02*
X113250000Y-130000000D01*
X122750000Y-87000000D02*
X123250000Y-86500000D01*
X113040000Y-137960000D02*
X113250000Y-137750000D01*
X111750000Y-137960000D02*
X113040000Y-137960000D01*
X122750000Y-120500000D02*
X113250000Y-130000000D01*
X122750000Y-118250000D02*
X122750000Y-120500000D01*
X122750000Y-118250000D02*
X122750000Y-87000000D01*
X61250001Y-79500000D02*
X62125000Y-79500000D01*
X61000000Y-77750000D02*
X61250000Y-77500000D01*
X61250000Y-77500000D02*
X62125001Y-77500000D01*
X61000000Y-79249999D02*
X61000000Y-77750000D01*
X61250001Y-79500000D02*
X61000000Y-79249999D01*
X60750000Y-79500000D02*
X61000000Y-79249999D01*
X60500000Y-79500001D02*
X60750000Y-79500000D01*
X59250000Y-79500000D02*
X60500000Y-79500001D01*
X60500000Y-79500001D02*
X61250001Y-79500000D01*
X52500000Y-63105600D02*
X51355600Y-63105600D01*
X51355600Y-63105600D02*
X51000000Y-62750000D01*
X51000000Y-62750000D02*
X51000000Y-59000000D01*
X51000000Y-59000000D02*
X51750000Y-58250000D01*
X55750000Y-58250000D02*
X56500000Y-58250000D01*
X51750000Y-58250000D02*
X55750000Y-58250000D01*
X58250000Y-56500000D02*
X58875000Y-56500000D01*
X56500000Y-58250000D02*
X58250000Y-56500000D01*
X52500000Y-73824400D02*
X52500000Y-75750000D01*
X52500000Y-75750000D02*
X51500000Y-76750000D01*
X51750000Y-78000000D02*
X51500000Y-77750000D01*
X52375000Y-78000000D02*
X51750000Y-78000000D01*
X51500000Y-76750000D02*
X51500000Y-77750000D01*
X100000000Y-57750000D02*
X100750000Y-57750000D01*
X98750000Y-57000000D02*
X99000000Y-57000000D01*
X98500000Y-57250000D02*
X98750000Y-57000000D01*
X98500000Y-57875000D02*
X98500000Y-57250000D01*
X99250000Y-57000000D02*
X100000000Y-57750000D01*
X99000000Y-57000000D02*
X99250000Y-57000000D01*
X105500000Y-58250000D02*
X105750000Y-58000000D01*
X105750000Y-58000000D02*
X105750000Y-57375000D01*
X104750000Y-58250000D02*
X105500000Y-58250000D01*
X99250000Y-57000000D02*
X99500000Y-56750000D01*
X103250000Y-56750000D02*
X104750000Y-58250000D01*
X101500000Y-56750000D02*
X103250000Y-56750000D01*
X99500000Y-56750000D02*
X101500000Y-56750000D01*
X105500000Y-67250000D02*
X105750000Y-67000000D01*
X99250000Y-66000000D02*
X99500000Y-65750000D01*
X105750000Y-67000000D02*
X105750000Y-66375000D01*
X104750000Y-67250000D02*
X105500000Y-67250000D01*
X99000000Y-66000000D02*
X99250000Y-66000000D01*
X99250000Y-66000000D02*
X100000000Y-66750000D01*
X100000000Y-66750000D02*
X100750000Y-66750000D01*
X98500000Y-66250000D02*
X98750000Y-66000000D01*
X98500000Y-66875000D02*
X98500000Y-66250000D01*
X98750000Y-66000000D02*
X99000000Y-66000000D01*
X103250000Y-65750000D02*
X104750000Y-67250000D01*
X99500000Y-65750000D02*
X101500000Y-65750000D01*
X101500000Y-65750000D02*
X103250000Y-65750000D01*
X101500000Y-74750000D02*
X103250000Y-74750000D01*
X99000000Y-75000000D02*
X99250000Y-75000000D01*
X98500000Y-75250000D02*
X98750000Y-75000000D01*
X98500000Y-75875000D02*
X98500000Y-75250000D01*
X99250000Y-75000000D02*
X100000000Y-75750000D01*
X105750000Y-76000000D02*
X105750000Y-75375000D01*
X100000000Y-75750000D02*
X100750000Y-75750000D01*
X105500000Y-76250000D02*
X105750000Y-76000000D01*
X104750000Y-76250000D02*
X105500000Y-76250000D01*
X98750000Y-75000000D02*
X99000000Y-75000000D01*
X103250000Y-74750000D02*
X104750000Y-76250000D01*
X99250000Y-75000000D02*
X99500000Y-74750000D01*
X99500000Y-74750000D02*
X101500000Y-74750000D01*
X100000000Y-84750000D02*
X100750000Y-84750000D01*
X105500000Y-85250000D02*
X105750000Y-85000000D01*
X98500000Y-84875000D02*
X98500000Y-84250000D01*
X101500000Y-83750000D02*
X103250000Y-83750000D01*
X99000000Y-84000000D02*
X99250000Y-84000000D01*
X99250000Y-84000000D02*
X100000000Y-84750000D01*
X98500000Y-84250000D02*
X98750000Y-84000000D01*
X105750000Y-85000000D02*
X105750000Y-84375000D01*
X104750000Y-85250000D02*
X105500000Y-85250000D01*
X99250000Y-84000000D02*
X99500000Y-83750000D01*
X99500000Y-83750000D02*
X101500000Y-83750000D01*
X98750000Y-84000000D02*
X99000000Y-84000000D01*
X103250000Y-83750000D02*
X104750000Y-85250000D01*
X96500000Y-79500000D02*
X98250000Y-79500000D01*
X96250000Y-80375000D02*
X96250000Y-79750000D01*
X96250000Y-79750000D02*
X96500000Y-79500000D01*
X98750000Y-79500000D02*
X98250000Y-79500000D01*
X98250000Y-79500000D02*
X98500000Y-79750000D01*
X98500000Y-79750000D02*
X98750000Y-79500000D01*
X98750000Y-79500000D02*
X99000000Y-79500000D01*
X99000000Y-79500000D02*
X99250000Y-79500000D01*
X98500000Y-80375000D02*
X98500000Y-79750000D01*
X100000000Y-80250000D02*
X100750000Y-80250000D01*
X99250000Y-79500000D02*
X100000000Y-80250000D01*
X100000000Y-102750000D02*
X100750000Y-102750000D01*
X105500000Y-103250000D02*
X105750000Y-103000000D01*
X98500000Y-102875000D02*
X98500000Y-102250000D01*
X101500000Y-101750000D02*
X103250000Y-101750000D01*
X99000000Y-102000000D02*
X99250000Y-102000000D01*
X99250000Y-102000000D02*
X100000000Y-102750000D01*
X98500000Y-102250000D02*
X98750000Y-102000000D01*
X105750000Y-103000000D02*
X105750000Y-102375000D01*
X104750000Y-103250000D02*
X105500000Y-103250000D01*
X99250000Y-102000000D02*
X99500000Y-101750000D01*
X99500000Y-101750000D02*
X101500000Y-101750000D01*
X98750000Y-102000000D02*
X99000000Y-102000000D01*
X103250000Y-101750000D02*
X104750000Y-103250000D01*
X97750000Y-111750000D02*
X98500000Y-111750000D01*
X103250000Y-112250000D02*
X103500000Y-112000000D01*
X96250000Y-111875000D02*
X96250000Y-111250000D01*
X99250000Y-110750000D02*
X101000000Y-110750000D01*
X96750000Y-111000000D02*
X97000000Y-111000000D01*
X97000000Y-111000000D02*
X97750000Y-111750000D01*
X96250000Y-111250000D02*
X96500000Y-111000000D01*
X103500000Y-112000000D02*
X103500000Y-111375000D01*
X102500000Y-112250000D02*
X103250000Y-112250000D01*
X97000000Y-111000000D02*
X97250000Y-110750000D01*
X97250000Y-110750000D02*
X99250000Y-110750000D01*
X96500000Y-111000000D02*
X96750000Y-111000000D01*
X101000000Y-110750000D02*
X102500000Y-112250000D01*
X97750000Y-120750000D02*
X98500000Y-120750000D01*
X103250000Y-121250000D02*
X103500000Y-121000000D01*
X96250000Y-120875000D02*
X96250000Y-120250000D01*
X99250000Y-119750000D02*
X101000000Y-119750000D01*
X96750000Y-120000000D02*
X97000000Y-120000000D01*
X97000000Y-120000000D02*
X97750000Y-120750000D01*
X96250000Y-120250000D02*
X96500000Y-120000000D01*
X103500000Y-121000000D02*
X103500000Y-120375000D01*
X102500000Y-121250000D02*
X103250000Y-121250000D01*
X97000000Y-120000000D02*
X97250000Y-119750000D01*
X97250000Y-119750000D02*
X99250000Y-119750000D01*
X96500000Y-120000000D02*
X96750000Y-120000000D01*
X101000000Y-119750000D02*
X102500000Y-121250000D01*
X97750000Y-129750000D02*
X98500000Y-129750000D01*
X103250000Y-130250000D02*
X103500000Y-130000000D01*
X96250000Y-129875000D02*
X96250000Y-129250000D01*
X99250000Y-128750000D02*
X101000000Y-128750000D01*
X96750000Y-129000000D02*
X97000000Y-129000000D01*
X97000000Y-129000000D02*
X97750000Y-129750000D01*
X96250000Y-129250000D02*
X96500000Y-129000000D01*
X103500000Y-130000000D02*
X103500000Y-129375000D01*
X102500000Y-130250000D02*
X103250000Y-130250000D01*
X97000000Y-129000000D02*
X97250000Y-128750000D01*
X97250000Y-128750000D02*
X99250000Y-128750000D01*
X96500000Y-129000000D02*
X96750000Y-129000000D01*
X101000000Y-128750000D02*
X102500000Y-130250000D01*
X97750000Y-138750000D02*
X98500000Y-138750000D01*
X103250000Y-139250000D02*
X103500000Y-139000000D01*
X96250000Y-138875000D02*
X96250000Y-138250000D01*
X99250000Y-137750000D02*
X101000000Y-137750000D01*
X96750000Y-138000000D02*
X97000000Y-138000000D01*
X97000000Y-138000000D02*
X97750000Y-138750000D01*
X96250000Y-138250000D02*
X96500000Y-138000000D01*
X103500000Y-139000000D02*
X103500000Y-138375000D01*
X102500000Y-139250000D02*
X103250000Y-139250000D01*
X97000000Y-138000000D02*
X97250000Y-137750000D01*
X97250000Y-137750000D02*
X99250000Y-137750000D01*
X96500000Y-138000000D02*
X96750000Y-138000000D01*
X101000000Y-137750000D02*
X102500000Y-139250000D01*
X96500000Y-97500000D02*
X98250000Y-97500000D01*
X98750000Y-97500000D02*
X98250000Y-97500000D01*
X98250000Y-97500000D02*
X98500000Y-97750000D01*
X98500000Y-97750000D02*
X98750000Y-97500000D01*
X98750000Y-97500000D02*
X99000000Y-97500000D01*
X99000000Y-97500000D02*
X99250000Y-97500000D01*
X98500000Y-98375000D02*
X98500000Y-97750000D01*
X100000000Y-98250000D02*
X100750000Y-98250000D01*
X99250000Y-97500000D02*
X100000000Y-98250000D01*
X96250000Y-97250000D02*
X96500000Y-97500000D01*
X96250000Y-96625000D02*
X96250000Y-97250000D01*
X96250000Y-106750000D02*
X96500000Y-106500000D01*
X96500000Y-106500000D02*
X96750000Y-106500000D01*
X96750000Y-106500000D02*
X97000000Y-106500000D01*
X96250000Y-107375000D02*
X96250000Y-106750000D01*
X97750000Y-107250000D02*
X98500000Y-107250000D01*
X97000000Y-106500000D02*
X97750000Y-107250000D01*
X96500000Y-106500000D02*
X96250000Y-106500000D01*
X96250000Y-106250000D02*
X96250000Y-106500000D01*
X96250000Y-105625000D02*
X96250000Y-106250000D01*
X96250000Y-106250000D02*
X96500000Y-106500000D01*
X96250000Y-106250000D02*
X96250000Y-106750000D01*
X96250000Y-104625000D02*
X96250000Y-105625000D01*
X94250000Y-115500000D02*
X96000000Y-115500000D01*
X96500000Y-115500000D02*
X96000000Y-115500000D01*
X96000000Y-115500000D02*
X96250000Y-115750000D01*
X96250000Y-115750000D02*
X96500000Y-115500000D01*
X96500000Y-115500000D02*
X96750000Y-115500000D01*
X96750000Y-115500000D02*
X97000000Y-115500000D01*
X96250000Y-116375000D02*
X96250000Y-115750000D01*
X97750000Y-116250000D02*
X98500000Y-116250000D01*
X97000000Y-115500000D02*
X97750000Y-116250000D01*
X94000000Y-115250000D02*
X94250000Y-115500000D01*
X94000000Y-114625000D02*
X94000000Y-115250000D01*
X94250000Y-124500000D02*
X96000000Y-124500000D01*
X96500000Y-124500000D02*
X96000000Y-124500000D01*
X96000000Y-124500000D02*
X96250000Y-124750000D01*
X96250000Y-124750000D02*
X96500000Y-124500000D01*
X96500000Y-124500000D02*
X96750000Y-124500000D01*
X96750000Y-124500000D02*
X97000000Y-124500000D01*
X96250000Y-125375000D02*
X96250000Y-124750000D01*
X97750000Y-125250000D02*
X98500000Y-125250000D01*
X97000000Y-124500000D02*
X97750000Y-125250000D01*
X94000000Y-124250000D02*
X94250000Y-124500000D01*
X94000000Y-123625000D02*
X94000000Y-124250000D01*
X94250000Y-133500000D02*
X96000000Y-133500000D01*
X96500000Y-133500000D02*
X96000000Y-133500000D01*
X96000000Y-133500000D02*
X96250000Y-133750000D01*
X96250000Y-133750000D02*
X96500000Y-133500000D01*
X96500000Y-133500000D02*
X96750000Y-133500000D01*
X96750000Y-133500000D02*
X97000000Y-133500000D01*
X96250000Y-134375000D02*
X96250000Y-133750000D01*
X97750000Y-134250000D02*
X98500000Y-134250000D01*
X97000000Y-133500000D02*
X97750000Y-134250000D01*
X94000000Y-133250000D02*
X94250000Y-133500000D01*
X94000000Y-132625000D02*
X94000000Y-133250000D01*
X105750000Y-55625000D02*
X105750000Y-53500000D01*
X107250000Y-52000000D02*
X108250000Y-52000000D01*
X105750000Y-53500000D02*
X107250000Y-52000000D01*
X107200000Y-61000000D02*
X108200000Y-61000000D01*
X105700000Y-62500000D02*
X107200000Y-61000000D01*
X105700000Y-64625000D02*
X105700000Y-62500000D01*
X107250000Y-70000000D02*
X108250000Y-70000000D01*
X105750000Y-71500000D02*
X107250000Y-70000000D01*
X105750000Y-73625000D02*
X105750000Y-71500000D01*
X107250000Y-79000000D02*
X108250000Y-79000000D01*
X105750000Y-80500000D02*
X107250000Y-79000000D01*
X105750000Y-82625000D02*
X105750000Y-80500000D01*
X107250000Y-88000000D02*
X108250000Y-88000000D01*
X105750000Y-89500000D02*
X107250000Y-88000000D01*
X105750000Y-91625000D02*
X105750000Y-89500000D01*
X107250000Y-97000000D02*
X108250000Y-97000000D01*
X105750000Y-98500000D02*
X107250000Y-97000000D01*
X105750000Y-100625000D02*
X105750000Y-98500000D01*
X105000000Y-106000000D02*
X106000000Y-106000000D01*
X103500000Y-107500000D02*
X105000000Y-106000000D01*
X103500000Y-109625000D02*
X103500000Y-107500000D01*
X105000000Y-115000000D02*
X106000000Y-115000000D01*
X103500000Y-116500000D02*
X105000000Y-115000000D01*
X103500000Y-118625000D02*
X103500000Y-116500000D01*
X105000000Y-124000000D02*
X106000000Y-124000000D01*
X103500000Y-125500000D02*
X105000000Y-124000000D01*
X103500000Y-127625000D02*
X103500000Y-125500000D01*
X105000000Y-133000000D02*
X106000000Y-133000000D01*
X103500000Y-134500000D02*
X105000000Y-133000000D01*
X103500000Y-136625000D02*
X103500000Y-134500000D01*
X100750000Y-77750000D02*
X100000000Y-77750000D01*
X98500000Y-78500000D02*
X99250000Y-78500000D01*
X99000000Y-78500000D02*
X98500000Y-78500000D01*
X99250000Y-78500000D02*
X100000000Y-77750000D01*
X98500000Y-77625000D02*
X98500000Y-78500000D01*
X99000000Y-87500000D02*
X98500000Y-87500000D01*
X98500000Y-87500000D02*
X99250000Y-87500000D01*
X100750000Y-86750000D02*
X100000000Y-86750000D01*
X98500000Y-86625000D02*
X98500000Y-87500000D01*
X99250000Y-87500000D02*
X100000000Y-86750000D01*
X99000000Y-96500000D02*
X98500000Y-96500000D01*
X98500000Y-96500000D02*
X99250000Y-96500000D01*
X100750000Y-95750000D02*
X100000000Y-95750000D01*
X98500000Y-95625000D02*
X98500000Y-96500000D01*
X99250000Y-96500000D02*
X100000000Y-95750000D01*
X99000000Y-105500000D02*
X98500000Y-105500000D01*
X98500000Y-105500000D02*
X99250000Y-105500000D01*
X100750000Y-104750000D02*
X100000000Y-104750000D01*
X98500000Y-104625000D02*
X98500000Y-105500000D01*
X99250000Y-105500000D02*
X100000000Y-104750000D01*
X96750000Y-114500000D02*
X96250000Y-114500000D01*
X96250000Y-114500000D02*
X97000000Y-114500000D01*
X98500000Y-113750000D02*
X97750000Y-113750000D01*
X96250000Y-113625000D02*
X96250000Y-114500000D01*
X97000000Y-114500000D02*
X97750000Y-113750000D01*
X96750000Y-123500000D02*
X96250000Y-123500000D01*
X96250000Y-123500000D02*
X97000000Y-123500000D01*
X98500000Y-122750000D02*
X97750000Y-122750000D01*
X96250000Y-122625000D02*
X96250000Y-123500000D01*
X97000000Y-123500000D02*
X97750000Y-122750000D01*
X96750000Y-132500000D02*
X96250000Y-132500000D01*
X96250000Y-132500000D02*
X97000000Y-132500000D01*
X98500000Y-131750000D02*
X97750000Y-131750000D01*
X96250000Y-131625000D02*
X96250000Y-132500000D01*
X97000000Y-132500000D02*
X97750000Y-131750000D01*
X96750000Y-141500000D02*
X96250000Y-141500000D01*
X96250000Y-141500000D02*
X97000000Y-141500000D01*
X98500000Y-140750000D02*
X97750000Y-140750000D01*
X96250000Y-140625000D02*
X96250000Y-141500000D01*
X97000000Y-141500000D02*
X97750000Y-140750000D01*
X99250000Y-69500000D02*
X100000000Y-68750000D01*
X98500000Y-69500000D02*
X99250000Y-69500000D01*
X100750000Y-68750000D02*
X100000000Y-68750000D01*
X99000000Y-69500000D02*
X98500000Y-69500000D01*
X98500000Y-68625000D02*
X98500000Y-69500000D01*
X98500000Y-59625000D02*
X98500000Y-60500000D01*
X100750000Y-59750000D02*
X100000000Y-59750000D01*
X99000000Y-60500000D02*
X98500000Y-60500000D01*
X99250000Y-60500000D02*
X100000000Y-59750000D01*
X98500000Y-60500000D02*
X99250000Y-60500000D01*
X84500000Y-67250000D02*
X84750000Y-67000000D01*
X84750000Y-67000000D02*
X84750000Y-67250000D01*
X84500000Y-67250000D02*
X84750000Y-67250000D01*
X84750000Y-67500000D02*
X84500000Y-67250000D01*
X84750000Y-67750000D02*
X84750000Y-67500000D01*
X84750000Y-67250000D02*
X84750000Y-67750000D01*
X84750000Y-67750000D02*
X84750000Y-69250000D01*
X86000000Y-65750000D02*
X85250000Y-65750000D01*
X90500001Y-87000000D02*
X89250000Y-87000000D01*
X52500000Y-80250000D02*
X51500000Y-80250000D01*
X51500000Y-80250000D02*
X51250000Y-80000000D01*
X51250000Y-80000000D02*
X51250000Y-79000000D01*
X83750000Y-67250000D02*
X84500000Y-67250000D01*
X83250000Y-67250000D02*
X83750000Y-67250000D01*
X83000000Y-67000000D02*
X83250000Y-67250000D01*
X83000000Y-56750000D02*
X83000000Y-67000000D01*
X85000000Y-54750000D02*
X83000000Y-56750000D01*
X85250000Y-63250000D02*
X84500000Y-63250000D01*
X84500000Y-63250000D02*
X84250000Y-63500000D01*
X86000000Y-65750000D02*
X85000000Y-65750000D01*
X84750000Y-66000000D02*
X84750000Y-66500000D01*
X85000000Y-65750000D02*
X84750000Y-66000000D01*
X84750000Y-66500000D02*
X84750000Y-67000000D01*
X84750000Y-66250000D02*
X84750000Y-66500000D01*
X84250000Y-64750000D02*
X84250000Y-65500000D01*
X84250000Y-63500000D02*
X84250000Y-64750000D01*
X85000000Y-65750000D02*
X84500000Y-65750000D01*
X84500000Y-65750000D02*
X84750000Y-66000000D01*
X84250000Y-65500000D02*
X84500000Y-65750000D01*
X56250000Y-80250000D02*
X56500000Y-80500000D01*
X55000000Y-80250000D02*
X56250000Y-80250000D01*
X92540000Y-90000000D02*
X92540000Y-88710000D01*
X92540000Y-88710000D02*
X92750000Y-88500000D01*
X92750000Y-88500000D02*
X93750000Y-88500000D01*
X93750000Y-88500000D02*
X94000000Y-88250000D01*
X94000000Y-88250000D02*
X94000000Y-87250000D01*
X93750000Y-87000000D02*
X93000001Y-87000000D01*
X94000000Y-87250000D02*
X93750000Y-87000000D01*
D35*
X89900000Y-52150000D02*
X84500000Y-52150000D01*
X84480491Y-52151921D01*
X84461732Y-52157612D01*
X84444443Y-52166853D01*
X84429289Y-52179289D01*
X83458578Y-53150000D01*
X78265274Y-53150000D01*
X78258291Y-53144269D01*
X78132342Y-53076947D01*
X77995679Y-53035491D01*
X77889161Y-53025000D01*
X77889151Y-53025000D01*
X77853554Y-53021494D01*
X77817957Y-53025000D01*
X77600000Y-53025000D01*
X77600000Y-50750000D01*
X89900000Y-50750000D01*
X89900000Y-52150000D01*
G04 #@! TA.AperFunction,Conductor*
D36*
G36*
X89900000Y-52150000D02*
G01*
X84500000Y-52150000D01*
X84480491Y-52151921D01*
X84461732Y-52157612D01*
X84444443Y-52166853D01*
X84429289Y-52179289D01*
X83458578Y-53150000D01*
X78265274Y-53150000D01*
X78258291Y-53144269D01*
X78132342Y-53076947D01*
X77995679Y-53035491D01*
X77889161Y-53025000D01*
X77889151Y-53025000D01*
X77853554Y-53021494D01*
X77817957Y-53025000D01*
X77600000Y-53025000D01*
X77600000Y-50750000D01*
X89900000Y-50750000D01*
X89900000Y-52150000D01*
G37*
G04 #@! TD.AperFunction*
M02*
