  0
SECTION
  2
HEADER
  9
$ANGBASE
  50
0.0
  9
$ANGDIR
  70
1
  9
$MEASUREMENT
  70
0
  0
ENDSEC
  0
SECTION
  2
TABLES
  0
TABLE
  2
LTYPE
  70
4
  0
LTYPE
  5
40F
  2
CONTINUOUS
  70
0
  3
Solid line
  72
65
  73
0
  40
0.0
  0
LTYPE
  5
410
  2
DASHDOT
 70
0
  3
Dash Dot ____ _ ____ _
 72
65
 73
4
 40
2.0
 49
1.25
 49
-0.25
 49
0.25
 49
-0.25
  0
LTYPE
  5
411
  2
DASHED
 70
0
  3
Dashed __ __ __ __ __
 72
65
 73
2
 40
0.75
 49
0.5
 49
-0.25
  0
LTYPE
  5
43B
  2
DOTTED
 70
0
  3
Dotted .  .  .  .
 72
65
 73
2
 40
0.2
 49
0.0
 49
-0.2
  0
ENDTAB
  0
TABLE
  2
STYLE
  70
4
  0
STYLE
  2
KICAD
  70
0
  40
0
  41
1
  42
1
  50
0
  71
0
  3
isocp.shx
  0
STYLE
  2
KICADB
  70
0
  40
0
  41
1
  42
1
  50
0
  71
0
  3
isocp.shx
  0
STYLE
  2
KICADI
  70
0
  40
0
  41
1
  42
1
  50
15
  71
0
  3
isocp.shx
  0
STYLE
  2
KICADBI
  70
0
  40
0
  41
1
  42
1
  50
15
  71
0
  3
isocp.shx
  0
ENDTAB
  0
TABLE
  2
LAYER
  70
1
  0
LAYER
  2
BLACK
  70
0
  62
7
  6
CONTINUOUS
  0
ENDTAB
  0
ENDSEC
  0
SECTION
  2
ENTITIES
0
LINE
8
BLACK
6
CONTINUOUS
10
5.5121
20
-1.9626
11
5.51297
21
-1.96268
0
LINE
8
BLACK
6
CONTINUOUS
10
5.51297
20
-1.96268
11
5.51408
21
-1.96302
0
LINE
8
BLACK
6
CONTINUOUS
10
5.51408
20
-1.96302
11
5.51511
21
-1.96357
0
LINE
8
BLACK
6
CONTINUOUS
10
5.51511
20
-1.96357
11
5.51601
21
-1.96431
0
LINE
8
BLACK
6
CONTINUOUS
10
5.51601
20
-1.96431
11
5.51675
21
-1.96521
0
LINE
8
BLACK
6
CONTINUOUS
10
5.51675
20
-1.96521
11
5.51729
21
-1.96623
0
LINE
8
BLACK
6
CONTINUOUS
10
5.51729
20
-1.96623
11
5.51763
21
-1.96735
0
LINE
8
BLACK
6
CONTINUOUS
10
5.51763
20
-1.96735
11
5.51775
21
-1.9685
0
LINE
8
BLACK
6
CONTINUOUS
10
5.51775
20
-1.9685
11
5.51772
21
-1.96879
0
LINE
8
BLACK
6
CONTINUOUS
10
5.51772
20
-1.96879
11
5.51772
21
-5.90522
0
LINE
8
BLACK
6
CONTINUOUS
10
5.51772
20
-5.90522
11
5.51775
21
-5.90551
0
LINE
8
BLACK
6
CONTINUOUS
10
5.51775
20
-5.90551
11
5.51763
21
-5.90667
0
LINE
8
BLACK
6
CONTINUOUS
10
5.51763
20
-5.90667
11
5.51729
21
-5.90778
0
LINE
8
BLACK
6
CONTINUOUS
10
5.51729
20
-5.90778
11
5.51675
21
-5.90881
0
LINE
8
BLACK
6
CONTINUOUS
10
5.51675
20
-5.90881
11
5.51601
21
-5.90971
0
LINE
8
BLACK
6
CONTINUOUS
10
5.51601
20
-5.90971
11
5.51511
21
-5.91045
0
LINE
8
BLACK
6
CONTINUOUS
10
5.51511
20
-5.91045
11
5.51408
21
-5.91099
0
LINE
8
BLACK
6
CONTINUOUS
10
5.51408
20
-5.91099
11
5.51297
21
-5.91133
0
LINE
8
BLACK
6
CONTINUOUS
10
5.51297
20
-5.91133
11
5.5121
21
-5.91142
0
LINE
8
BLACK
6
CONTINUOUS
10
5.5121
20
-5.91142
11
5.51181
21
-5.91145
0
LINE
8
BLACK
6
CONTINUOUS
10
5.51181
20
-5.91145
11
5.51152
21
-5.91142
0
LINE
8
BLACK
6
CONTINUOUS
10
5.51152
20
-5.91142
11
1.96879
21
-5.91142
0
LINE
8
BLACK
6
CONTINUOUS
10
1.96879
20
-5.91142
11
1.9685
21
-5.91145
0
LINE
8
BLACK
6
CONTINUOUS
10
1.9685
20
-5.91145
11
1.96735
21
-5.91133
0
LINE
8
BLACK
6
CONTINUOUS
10
1.96735
20
-5.91133
11
1.96623
21
-5.91099
0
LINE
8
BLACK
6
CONTINUOUS
10
1.96623
20
-5.91099
11
1.96521
21
-5.91045
0
LINE
8
BLACK
6
CONTINUOUS
10
1.96521
20
-5.91045
11
1.96431
21
-5.90971
0
LINE
8
BLACK
6
CONTINUOUS
10
1.96431
20
-5.90971
11
1.96357
21
-5.90881
0
LINE
8
BLACK
6
CONTINUOUS
10
1.96357
20
-5.90881
11
1.96302
21
-5.90778
0
LINE
8
BLACK
6
CONTINUOUS
10
1.96302
20
-5.90778
11
1.96268
21
-5.90667
0
LINE
8
BLACK
6
CONTINUOUS
10
1.96268
20
-5.90667
11
1.96257
21
-5.90551
0
LINE
8
BLACK
6
CONTINUOUS
10
1.96257
20
-5.90551
11
1.9626
21
-5.90522
0
LINE
8
BLACK
6
CONTINUOUS
10
1.9626
20
-5.90522
11
1.9626
21
-1.96879
0
LINE
8
BLACK
6
CONTINUOUS
10
1.9626
20
-1.96879
11
1.96257
21
-1.9685
0
LINE
8
BLACK
6
CONTINUOUS
10
1.96257
20
-1.9685
11
1.96268
21
-1.96735
0
LINE
8
BLACK
6
CONTINUOUS
10
1.96268
20
-1.96735
11
1.96302
21
-1.96623
0
LINE
8
BLACK
6
CONTINUOUS
10
1.96302
20
-1.96623
11
1.96357
21
-1.96521
0
LINE
8
BLACK
6
CONTINUOUS
10
1.96357
20
-1.96521
11
1.96431
21
-1.96431
0
LINE
8
BLACK
6
CONTINUOUS
10
1.96431
20
-1.96431
11
1.96521
21
-1.96357
0
LINE
8
BLACK
6
CONTINUOUS
10
1.96521
20
-1.96357
11
1.96623
21
-1.96302
0
LINE
8
BLACK
6
CONTINUOUS
10
1.96623
20
-1.96302
11
1.96735
21
-1.96268
0
LINE
8
BLACK
6
CONTINUOUS
10
1.96735
20
-1.96268
11
1.96821
21
-1.9626
0
LINE
8
BLACK
6
CONTINUOUS
10
1.96821
20
-1.9626
11
1.9685
21
-1.96257
0
LINE
8
BLACK
6
CONTINUOUS
10
1.9685
20
-1.96257
11
1.96879
21
-1.9626
0
LINE
8
BLACK
6
CONTINUOUS
10
1.96879
20
-1.9626
11
5.51152
21
-1.9626
0
LINE
8
BLACK
6
CONTINUOUS
10
5.51152
20
-1.9626
11
5.51181
21
-1.96257
0
LINE
8
BLACK
6
CONTINUOUS
10
5.51181
20
-1.96257
11
5.5121
21
-1.9626
0
LINE
8
BLACK
6
CONTINUOUS
10
1.97441
20
-1.97441
11
1.97441
21
-5.89961
0
LINE
8
BLACK
6
CONTINUOUS
10
1.97441
20
-5.89961
11
5.50591
21
-5.89961
0
LINE
8
BLACK
6
CONTINUOUS
10
5.50591
20
-5.89961
11
5.50591
21
-1.97441
0
LINE
8
BLACK
6
CONTINUOUS
10
5.50591
20
-1.97441
11
1.97441
21
-1.97441
  0
ENDSEC
  0
EOF
